<?xml version="1.0" encoding="UTF-8" standalone="no"?>
<svg
   viewBox="0 0 64 64"
   version="1.1"
   id="svg4"
   sodipodi:docname="folder-reddit.svg"
   inkscape:version="1.4.2 (unknown)"
   xmlns:inkscape="http://www.inkscape.org/namespaces/inkscape"
   xmlns:sodipodi="http://sodipodi.sourceforge.net/DTD/sodipodi-0.dtd"
   xmlns="http://www.w3.org/2000/svg"
   xmlns:svg="http://www.w3.org/2000/svg">
  <sodipodi:namedview
     id="namedview4"
     pagecolor="#ffffff"
     bordercolor="#000000"
     borderopacity="0.25"
     inkscape:showpageshadow="2"
     inkscape:pageopacity="0.0"
     inkscape:pagecheckerboard="0"
     inkscape:deskcolor="#d1d1d1"
     inkscape:zoom="11.890625"
     inkscape:cx="31.95795"
     inkscape:cy="32"
     inkscape:current-layer="svg4" />
  <defs
     id="defs3051">
    <style
       type="text/css"
       id="current-color-scheme">
      .ColorScheme-Text {
      color:#232629;
      }
      .ColorScheme-Accent {
      color:#3daee9;
      }
    </style>
  </defs>
  <path
     style="fill:currentColor"
     d="m 4.0006635,10 v 1 9 0 c -0.5203637,0.02153 -1.0229638,0.505476 -0.999899,1 h 0.00195 c -4.69e-5,0.004 -0.00195,0.008 -0.00195,0.01172 V 56 c 0.00871,0.999392 0.9801138,2.005992 1.999798,2 v 0 H 58.995109 v 0 c 1.011732,0.02205 1.994216,-0.972534 1.999798,-2 V 21.011719 21 17 c 0.05936,-0.589244 -0.407896,-1.006383 -0.999899,-1 v -4 c 0,-0.003 -0.002,0.004 -0.002,0 h 0.002 v 0 c -0.0061,-1.000671 -0.953819,-1.995969 -1.999798,-2 H 31.997836 L 27.99824,6 H 8.0002595 C 5.9630216,5.99492 4.0363539,7.9703236 4.0006635,10 Z"
     class="ColorScheme-Accent"
     id="path1" />
  <path
     style="fill-opacity:0.33"
     d="m 4.0302775,10 -0.029614,1 v 9 H 21.998846 l 3.999596,-4 h 33.996566 v -4 c 0,-0.003 -0.002,0.004 -0.002,0 h 0.002 C 59.988808,10.988725 58.990992,9.9943186 57.99521,10 H 31.997836 L 27.99824,6 H 8.0002595 C 5.9928069,6.00259 3.994256,8.0072001 4.0302775,10 Z"
     id="path2" />
  <path
     style="fill:#ffffff;fill-opacity:0.2"
     d="m 27.99824,6 2.999697,5 h 1.999798 24.997475 c 1.212814,-0.06389 2.005543,1.005906 1.999798,2 v -1 c 6e-4,-0.992592 -0.988601,-1.993446 -1.999798,-2 H 32.997735 31.997836 Z m -1.999798,10 -3.999596,4 H 3.0007645 v 1 H 22.998745 Z"
     id="path3" />
  <path
     style="fill-opacity:0.2"
     d="m 25.998442,16 -5.999394,3 H 4.0006635 v 1 H 21.998846 Z M 3.0007645,56 c 0.00641,1.008598 0.9937008,2.001463 1.999798,2 v 0 H 58.995109 v 0 0 c 1.002828,0.0016 2.001139,-0.999662 1.999798,-2 z"
     class="ColorScheme-Text"
     id="path4" />
  <path
     d="m 43.5,36.55811 c 0,-1.827954 -1.482551,-3.310421 -3.300036,-3.310421 -0.716084,0 -1.399899,0.2302 -1.964477,0.649233 -1.60196,-0.810376 -3.506756,-1.298301 -5.521623,-1.413411 l 1.317251,-3.651055 3.185458,0.796533 c 0.06877,1.312166 1.156593,2.352566 2.478509,2.352566 1.36764,0 2.483004,-1.11881 2.483004,-2.490676 C 42.178086,28.118821 41.062722,27 39.695082,27 c -0.931768,0 -1.744135,0.515621 -2.171027,1.279967 l -4.365004,-1.095811 -1.900134,5.271665 c -2.189327,0.0644 -4.264071,0.561668 -5.994399,1.431935 C 24.699933,33.468711 24.020772,33.243189 23.304683,33.243189 21.482554,33.248389 20,34.734834 20,36.55811 c 0,0.893124 0.367188,1.754046 0.995955,2.371101 -0.04127,0.2624 -0.0642,0.529467 -0.0642,0.796358 0,2.002776 1.165757,3.862928 3.277078,5.234978 C 26.228357,46.277201 28.904275,47 31.740831,47 c 2.836563,0 5.507817,-0.722799 7.531821,-2.039453 2.111334,-1.376724 3.277256,-3.236703 3.277256,-5.234978 0,-0.262389 -0.02293,-0.524789 -0.05971,-0.787189 0.637924,-0.612368 1.009784,-1.477969 1.009784,-2.38027 z m -16.918241,1.933713 c 0,-1.063612 0.862926,-1.929211 1.92325,-1.929211 1.060159,0 1.923084,0.865599 1.923084,1.929211 0,1.063434 -0.862925,1.929034 -1.923084,1.929034 -1.060324,0 -1.92325,-0.8656 -1.92325,-1.929034 z m 5.292129,6.104885 c -1.491697,0 -2.946644,-0.423537 -4.204191,-1.224576 l 0.738864,-1.164855 c 1.037376,0.662915 2.239881,1.012893 3.469982,1.012893 1.230128,0 2.427964,-0.349978 3.469821,-1.012893 l 0.739033,1.164855 c -1.26686,0.801039 -2.721808,1.224576 -4.213509,1.224576 z m 3.410288,-4.175851 c -1.060328,0 -1.923075,-0.8656 -1.923075,-1.929034 0,-1.063612 0.862747,-1.929211 1.923075,-1.929211 1.060323,0 1.923073,0.865599 1.923073,1.929211 0,1.063434 -0.86275,1.929034 -1.923073,1.929034 z m 0,0"
     id="path2-3-6"
     style="fill:#e5e5e5;fill-opacity:1;stroke-width:0.0414368" />
</svg>
