<?xml version="1.0" encoding="UTF-8" standalone="no"?>
<svg
   viewBox="0 0 64 64"
   version="1.1"
   id="svg4"
   sodipodi:docname="folder-cloud.svg"
   inkscape:version="1.4.2 (unknown)"
   xmlns:inkscape="http://www.inkscape.org/namespaces/inkscape"
   xmlns:sodipodi="http://sodipodi.sourceforge.net/DTD/sodipodi-0.dtd"
   xmlns="http://www.w3.org/2000/svg"
   xmlns:svg="http://www.w3.org/2000/svg">
  <sodipodi:namedview
     id="namedview4"
     pagecolor="#ffffff"
     bordercolor="#000000"
     borderopacity="0.25"
     inkscape:showpageshadow="2"
     inkscape:pageopacity="0.0"
     inkscape:pagecheckerboard="0"
     inkscape:deskcolor="#d1d1d1"
     inkscape:zoom="11.890625"
     inkscape:cx="32"
     inkscape:cy="32"
     inkscape:current-layer="svg4" />
  <defs
     id="defs3051">
    <style
       type="text/css"
       id="current-color-scheme">
      .ColorScheme-Text {
      color:#232629;
      }
      .ColorScheme-Accent {
      color:#3daee9;
      }
    </style>
  </defs>
  <path
     style="fill:currentColor"
     d="m 4.0006635,10 v 1 9 0 c -0.5203637,0.02153 -1.0229638,0.505476 -0.999899,1 h 0.00195 c -4.69e-5,0.004 -0.00195,0.008 -0.00195,0.01172 V 56 c 0.00871,0.999392 0.9801138,2.005992 1.999798,2 v 0 H 58.995109 v 0 c 1.011732,0.02205 1.994216,-0.972534 1.999798,-2 V 21.011719 21 17 c 0.05936,-0.589244 -0.407896,-1.006383 -0.999899,-1 v -4 c 0,-0.003 -0.002,0.004 -0.002,0 h 0.002 v 0 c -0.0061,-1.000671 -0.953819,-1.995969 -1.999798,-2 H 31.997836 L 27.99824,6 H 8.0002595 C 5.9630216,5.99492 4.0363539,7.9703236 4.0006635,10 Z"
     class="ColorScheme-Accent"
     id="path1" />
  <path
     style="fill-opacity:0.33"
     d="m 4.0302775,10 -0.029614,1 v 9 H 21.998846 l 3.999596,-4 h 33.996566 v -4 c 0,-0.003 -0.002,0.004 -0.002,0 h 0.002 C 59.988808,10.988725 58.990992,9.9943186 57.99521,10 H 31.997836 L 27.99824,6 H 8.0002595 C 5.9928069,6.00259 3.994256,8.0072001 4.0302775,10 Z"
     id="path2" />
  <path
     style="fill:#ffffff;fill-opacity:0.2"
     d="m 27.99824,6 2.999697,5 h 1.999798 24.997475 c 1.212814,-0.06389 2.005543,1.005906 1.999798,2 v -1 c 6e-4,-0.992592 -0.988601,-1.993446 -1.999798,-2 H 32.997735 31.997836 Z m -1.999798,10 -3.999596,4 H 3.0007645 v 1 H 22.998745 Z"
     id="path3" />
  <path
     style="fill-opacity:0.2"
     d="m 25.998442,16 -5.999394,3 H 4.0006635 v 1 H 21.998846 Z M 3.0007645,56 c 0.00641,1.008598 0.9937008,2.001463 1.999798,2 v 0 H 58.995109 v 0 0 c 1.002828,0.0016 2.001139,-0.999662 1.999798,-2 z"
     class="ColorScheme-Text"
     id="path4" />
  <path
     style="color:#eff0f1;fill:#e5e5e5;fill-opacity:1;stroke:none"
     d="M 32.000002,28 A 7,7 0 0 0 25,35 7,7 0 0 0 25.08008,36.001953 5,5 0 0 0 25,36.000053 a 5,5 0 0 0 -5,5 5,5 0 0 0 5,5 h 13.000002 a 6,6 0 0 0 6,-6 6,6 0 0 0 -5.06836,-5.921875 7,7 0 0 0 -6.93164,-6.078125 z m 0,1 a 6,6 0 0 1 0.59961,0.0293 6,6 0 0 1 2.78711,1.019531 6,6 0 0 1 0.002,0 6,6 0 0 1 1.31055,1.220703 6,6 0 0 1 0,0.002 6,6 0 0 1 1.21484,2.732422 6,6 0 0 1 0.0859,0.996094 5,5 0 0 1 0.99609,0.09961 5,5 0 0 1 0.48242,0.123047 5,5 0 0 1 0.002,0 5,5 0 0 1 0.46679,0.171875 5,5 0 0 1 0.002,0 5,5 0 0 1 0.44726,0.216797 5,5 0 0 1 0.004,0.0019 5,5 0 0 1 0.42187,0.259766 5,5 0 0 1 0.004,0.0019 5,5 0 0 1 0.39453,0.300781 5,5 0 0 1 0.002,0.002 5,5 0 0 1 0.36329,0.337891 5,5 0 0 1 0.002,0.002 5,5 0 0 1 0.61914,0.78125 5,5 0 0 1 0.002,0.002 5,5 0 0 1 0.2461,0.431641 5,5 0 0 1 0.002,0.002 5,5 0 0 1 0.20312,0.453125 5,5 0 0 1 0.002,0.002 5,5 0 0 1 0.15625,0.472656 5,5 0 0 1 0,0.002 5,5 0 0 1 0.10937,0.486329 5,5 0 0 1 0,0.002 5,5 0 0 1 0.0605,0.49414 5,5 0 0 1 0.0117,0.353516 5,5 0 0 1 -5,5 H 25 a 4,4 0 0 1 -4,-4 4,4 0 0 1 0.01953,-0.398438 4,4 0 0 1 3.980469,-3.601562 4,4 0 0 1 0.298828,0.01367 4,4 0 0 1 0,0.002 4,4 0 0 1 1.156254,0.261719 A 6,6 0 0 1 26.11328,36.131125 6,6 0 0 1 26.03906,35.623313 6,6 0 0 1 26.02539,35.508078 6,6 0 0 1 26,35.000266 a 6,6 0 0 1 0.0293,-0.599609 6,6 0 0 1 5.970705,-5.400391 z"
     class="ColorScheme-Background"
     id="path12-2" />
</svg>
