<?xml version="1.0" encoding="UTF-8" standalone="no"?>
<svg
   viewBox="0 0 64 64"
   version="1.1"
   id="svg4"
   sodipodi:docname="folder-github.svg"
   inkscape:version="1.4.2 (unknown)"
   xmlns:inkscape="http://www.inkscape.org/namespaces/inkscape"
   xmlns:sodipodi="http://sodipodi.sourceforge.net/DTD/sodipodi-0.dtd"
   xmlns="http://www.w3.org/2000/svg"
   xmlns:svg="http://www.w3.org/2000/svg">
  <sodipodi:namedview
     id="namedview4"
     pagecolor="#ffffff"
     bordercolor="#000000"
     borderopacity="0.25"
     inkscape:showpageshadow="2"
     inkscape:pageopacity="0.0"
     inkscape:pagecheckerboard="0"
     inkscape:deskcolor="#d1d1d1"
     showgrid="true"
     inkscape:zoom="16.815883"
     inkscape:cx="30.744743"
     inkscape:cy="38.32686"
     inkscape:current-layer="svg4">
    <inkscape:grid
       id="grid4"
       units="px"
       originx="0"
       originy="0"
       spacingx="1"
       spacingy="1"
       empcolor="#0099e5"
       empopacity="0.30196078"
       color="#0099e5"
       opacity="0.14902"
       empspacing="5"
       enabled="true"
       visible="true" />
  </sodipodi:namedview>
  <defs
     id="defs3051">
    <style
       type="text/css"
       id="current-color-scheme">
      .ColorScheme-Text {
      color:#232629;
      }
      .ColorScheme-Accent {
      color:#3daee9;
      }
    </style>
  </defs>
  <path
     style="fill:currentColor"
     d="m 4.0006635,10 v 1 9 0 c -0.5203637,0.02153 -1.0229638,0.505476 -0.999899,1 h 0.00195 c -4.69e-5,0.004 -0.00195,0.008 -0.00195,0.01172 V 56 c 0.00871,0.999392 0.9801138,2.005992 1.999798,2 v 0 H 58.995109 v 0 c 1.011732,0.02205 1.994216,-0.972534 1.999798,-2 V 21.011719 21 17 c 0.05936,-0.589244 -0.407896,-1.006383 -0.999899,-1 v -4 c 0,-0.003 -0.002,0.004 -0.002,0 h 0.002 v 0 c -0.0061,-1.000671 -0.953819,-1.995969 -1.999798,-2 H 31.997836 L 27.99824,6 H 8.0002595 C 5.9630216,5.99492 4.0363539,7.9703236 4.0006635,10 Z"
     class="ColorScheme-Accent"
     id="path1" />
  <path
     style="fill-opacity:0.33"
     d="m 4.0302775,10 -0.029614,1 v 9 H 21.998846 l 3.999596,-4 h 33.996566 v -4 c 0,-0.003 -0.002,0.004 -0.002,0 h 0.002 C 59.988808,10.988725 58.990992,9.9943186 57.99521,10 H 31.997836 L 27.99824,6 H 8.0002595 C 5.9928069,6.00259 3.994256,8.0072001 4.0302775,10 Z"
     id="path2" />
  <path
     style="fill:#ffffff;fill-opacity:0.2"
     d="m 27.99824,6 2.999697,5 h 1.999798 24.997475 c 1.212814,-0.06389 2.005543,1.005906 1.999798,2 v -1 c 6e-4,-0.992592 -0.988601,-1.993446 -1.999798,-2 H 32.997735 31.997836 Z m -1.999798,10 -3.999596,4 H 3.0007645 v 1 H 22.998745 Z"
     id="path3" />
  <path
     style="fill-opacity:0.2"
     d="m 25.998442,16 -5.999394,3 H 4.0006635 v 1 H 21.998846 Z M 3.0007645,56 c 0.00641,1.008598 0.9937008,2.001463 1.999798,2 v 0 H 58.995109 v 0 0 c 1.002828,0.0016 2.001139,-0.999662 1.999798,-2 z"
     class="ColorScheme-Text"
     id="path4" />
  <path
     d="M 31.999973,27 C 26.198742,27 21.5,31.59124 21.5,37.25376 c 0,4.53124 3.00824,8.37379 7.179359,9.72855 0.524997,0.0964 0.717495,-0.22086 0.717495,-0.49303 0,-0.24348 -0.009,-0.88869 -0.01318,-1.74345 -2.920736,0.61826 -3.536739,-1.37564 -3.536739,-1.37564 -0.477743,-1.18346 -1.168121,-1.49999 -1.168121,-1.49999 -0.951119,-0.63564 0.07356,-0.62259 0.07356,-0.62259 1.054372,0.0712 1.608249,1.05651 1.608249,1.05651 0.936246,1.56781 2.457865,1.11478 3.058112,0.85304 0.09449,-0.66347 0.36487,-1.11477 0.664998,-1.37129 -2.331872,-0.25651 -4.782734,-1.13824 -4.782734,-5.06688 0,-1.11911 0.406872,-2.03388 1.080624,-2.75126 -0.118135,-0.25913 -0.472499,-1.30172 0.09188,-2.71387 0,0 0.879372,-0.27478 2.887489,1.05129 0.840006,-0.22783 1.732502,-0.34087 2.624995,-0.34609 0.892495,0.005 1.785,0.11825 2.624997,0.34609 1.994995,-1.32607 2.874367,-1.05129 2.874367,-1.05129 0.564374,1.41215 0.209987,2.45474 0.104994,2.71387 0.669376,0.71738 1.076247,1.63215 1.076247,2.75126 0,3.93907 -2.454373,4.80602 -4.790612,5.05819 0.367497,0.30782 0.70875,0.93651 0.70875,1.89736 0,1.37216 -0.01308,2.47475 -0.01308,2.80779 0,0.26869 0.183754,0.58954 0.721872,0.48695 C 39.494375,45.6232 42.5,41.77804 42.5,37.25376 42.499978,31.59124 37.798621,27 32.000015,27 Z"
     id="path2-3-3-6"
     style="fill:#e5e5e5;fill-opacity:1;stroke-width:0.869553" />
</svg>
