<?xml version="1.0" encoding="UTF-8" standalone="no"?>
<svg
   viewBox="0 0 64 64"
   version="1.1"
   id="svg4"
   sodipodi:docname="folder-google.svg"
   inkscape:version="1.4.2 (unknown)"
   xmlns:inkscape="http://www.inkscape.org/namespaces/inkscape"
   xmlns:sodipodi="http://sodipodi.sourceforge.net/DTD/sodipodi-0.dtd"
   xmlns="http://www.w3.org/2000/svg"
   xmlns:svg="http://www.w3.org/2000/svg">
  <sodipodi:namedview
     id="namedview4"
     pagecolor="#ffffff"
     bordercolor="#000000"
     borderopacity="0.25"
     inkscape:showpageshadow="2"
     inkscape:pageopacity="0.0"
     inkscape:pagecheckerboard="0"
     inkscape:deskcolor="#d1d1d1"
     inkscape:zoom="11.890625"
     inkscape:cx="32"
     inkscape:cy="32"
     inkscape:current-layer="svg4" />
  <defs
     id="defs3051">
    <style
       type="text/css"
       id="current-color-scheme">
      .ColorScheme-Text {
      color:#232629;
      }
      .ColorScheme-Accent {
      color:#3daee9;
      }
    </style>
  </defs>
  <path
     style="fill:currentColor"
     d="m 4.0006635,10 v 1 9 0 c -0.5203637,0.02153 -1.0229638,0.505476 -0.999899,1 h 0.00195 c -4.69e-5,0.004 -0.00195,0.008 -0.00195,0.01172 V 56 c 0.00871,0.999392 0.9801138,2.005992 1.999798,2 v 0 H 58.995109 v 0 c 1.011732,0.02205 1.994216,-0.972534 1.999798,-2 V 21.011719 21 17 c 0.05936,-0.589244 -0.407896,-1.006383 -0.999899,-1 v -4 c 0,-0.003 -0.002,0.004 -0.002,0 h 0.002 v 0 c -0.0061,-1.000671 -0.953819,-1.995969 -1.999798,-2 H 31.997836 L 27.99824,6 H 8.0002595 C 5.9630216,5.99492 4.0363539,7.9703236 4.0006635,10 Z"
     class="ColorScheme-Accent"
     id="path1" />
  <path
     style="fill-opacity:0.33"
     d="m 4.0302775,10 -0.029614,1 v 9 H 21.998846 l 3.999596,-4 h 33.996566 v -4 c 0,-0.003 -0.002,0.004 -0.002,0 h 0.002 C 59.988808,10.988725 58.990992,9.9943186 57.99521,10 H 31.997836 L 27.99824,6 H 8.0002595 C 5.9928069,6.00259 3.994256,8.0072001 4.0302775,10 Z"
     id="path2" />
  <path
     style="fill:#ffffff;fill-opacity:0.2"
     d="m 27.99824,6 2.999697,5 h 1.999798 24.997475 c 1.212814,-0.06389 2.005543,1.005906 1.999798,2 v -1 c 6e-4,-0.992592 -0.988601,-1.993446 -1.999798,-2 H 32.997735 31.997836 Z m -1.999798,10 -3.999596,4 H 3.0007645 v 1 H 22.998745 Z"
     id="path3" />
  <path
     style="fill-opacity:0.2"
     d="m 25.998442,16 -5.999394,3 H 4.0006635 v 1 H 21.998846 Z M 3.0007645,56 c 0.00641,1.008598 0.9937008,2.001463 1.999798,2 v 0 H 58.995109 v 0 0 c 1.002828,0.0016 2.001139,-0.999662 1.999798,-2 z"
     class="ColorScheme-Text"
     id="path4" />
  <path
     d="m 42.09906,37.486478 c 0,-0.729005 -0.06414,-1.425966 -0.188266,-2.098892 h -9.657302 v 3.969469 h 5.519611 c -0.180244,0.95732 -0.636876,1.802485 -1.309814,2.475413 l -0.0033,0.004 c -0.02798,0.02804 -0.06012,0.06007 -0.09213,0.08812 -0.200276,0.18826 -0.420586,0.364502 -0.656909,0.520717 -0.04807,0.03204 -0.100168,0.06408 -0.152255,0.09613 -0.02011,0.01206 -0.04405,0.02804 -0.06414,0.04006 -0.02412,0.01608 -0.0521,0.03205 -0.07604,0.04406 -0.592824,0.344475 -1.281775,0.588812 -2.054826,0.712984 l 0.0083,0.004 c -0.356486,0.05607 -0.729,0.08812 -1.117545,0.08812 -0.480666,0 -0.945304,-0.06007 -1.393912,-0.168232 0.0033,-0.008 0.0033,-0.01206 0.0083,-0.01608 -1.910626,-0.468644 -3.480798,-1.854555 -4.217821,-3.66505 0,-0.004 -0.0033,-0.008 -0.0033,-0.01206 -0.02395,-0.05607 -0.04405,-0.112157 -0.06414,-0.168232 -0.0033,-0.008 -0.0083,-0.02003 -0.01174,-0.02804 l -0.06012,-0.168233 h -0.01173 l 0.0033,-0.004 0.0083,-0.004 c -0.0201,-0.06007 -0.02797,-0.124168 -0.04807,-0.184254 -0.0033,0.004 -0.0083,0.004 -0.0083,0.008 -0.04807,-0.152203 -0.08811,-0.308424 -0.124115,-0.464638 -0.09615,-0.42058 -0.148237,-0.857182 -0.148237,-1.305799 0,-0.520717 0.07202,-1.025415 0.196275,-1.510081 0.04004,-0.148202 0.08007,-0.292402 0.128136,-0.436602 0.01675,-0.04408 0.032,-0.08812 0.04405,-0.132188 l 0.01173,-0.03606 c 0.01172,-0.03205 0.02412,-0.06808 0.03602,-0.100148 l 0.01174,-0.03606 c 0.01675,-0.03606 0.02798,-0.07208 0.04405,-0.108154 0.0033,-0.004 0.0033,-0.01206 0.0083,-0.01608 0.04003,-0.09213 0.08007,-0.18025 0.120095,-0.268371 0.580799,-1.217677 1.546136,-2.227069 2.735771,-2.847924 l -0.0033,-0.004 c 0.821122,-0.428591 1.746413,-0.672927 2.727762,-0.672927 1.510074,0 2.85193,0.520718 3.925404,1.530109 l 2.936152,-2.935989 C 37.336454,28.0174 35.021254,27 32.253443,27 c -3.801239,0 -7.109799,2.070853 -8.880231,5.151098 0,0.004 -0.0033,0.004 -0.0033,0.008 -0.04405,0.0761 -0.08811,0.152205 -0.128136,0.23232 -0.0083,0.01206 -0.01173,0.02404 -0.0201,0.03606 -0.04004,0.0761 -0.08007,0.152204 -0.120096,0.23232 C 22.400554,34.037684 22,35.595829 22,37.254115 c 0,1.658285 0.400554,3.216432 1.101515,4.594331 v 0.01206 c 0.03199,0.06408 0.06414,0.124165 0.09615,0.184252 0.0083,0.02003 0.01993,0.03606 0.02798,0.05207 0.02395,0.04807 0.0521,0.09613 0.07604,0.144199 0.0083,0.01608 0.01675,0.03205 0.02797,0.04807 0.07218,0.128186 0.144216,0.252349 0.224313,0.376518 0.0033,0.008 0.01174,0.02003 0.01675,0.02804 0.03602,0.06007 0.07604,0.11616 0.112055,0.176243 0,0.004 0.0033,0.004 0.0033,0.008 1.514077,2.307178 3.933412,3.965463 6.753298,4.470159 h 0.0083 c 0.0561,0.008 0.112224,0.02003 0.168236,0.02804 0.0083,0 0.01173,0.004 0.0201,0.004 l 0.156275,0.02404 c 0.01173,0 0.0201,0.004 0.032,0.004 0.04806,0.008 0.09615,0.01206 0.148235,0.02003 0.01675,0 0.02798,0.004 0.04405,0.004 0.04406,0.004 0.09213,0.01206 0.136175,0.01608 0.0201,0 0.03602,0.004 0.0561,0.004 0.04003,0.004 0.08408,0.008 0.124116,0.01206 0.02412,0 0.04406,0.004 0.06799,0.004 0.04004,0.004 0.07604,0.008 0.116075,0.008 0.02797,0 0.05209,0.004 0.08006,0.004 0.03602,0.004 0.06816,0.004 0.104184,0.008 0.032,0 0.06414,0.004 0.09213,0.004 0.032,0 0.06012,0.004 0.09213,0.004 0.04004,0 0.07604,0.004 0.116242,0.004 h 0.252352 c 0.276388,0 0.548756,-0.008 0.81712,-0.02804 0.200278,-0.01206 0.392547,-0.03205 0.588821,-0.05607 0.07604,-0.008 0.148235,-0.02003 0.220309,-0.02804 1.858552,-0.260359 3.464769,-0.965331 4.754549,-2.014777 0.01173,-0.01206 0.02798,-0.02003 0.04004,-0.03205 0.02797,-0.02404 0.0561,-0.04807 0.08407,-0.06808 0.02797,-0.02404 0.05209,-0.04408 0.08006,-0.06808 0.01993,-0.01608 0.04003,-0.03606 0.06012,-0.05207 0.04807,-0.04407 0.09615,-0.08412 0.144215,-0.128185 0.757037,-0.700965 1.38991,-1.530108 1.882587,-2.467398 0.757149,-1.453706 1.173716,-3.16807 1.173716,-5.07069"
     style="fill:#e5e5e5;fill-opacity:1;stroke-width:0.0398563"
     id="path1-3" />
</svg>
