<?xml version="1.0" encoding="UTF-8" standalone="no"?>
<svg
   viewBox="0 0 64 64"
   version="1.1"
   id="svg4"
   sodipodi:docname="folder-lab.svg"
   inkscape:version="1.4.2 (unknown)"
   xmlns:inkscape="http://www.inkscape.org/namespaces/inkscape"
   xmlns:sodipodi="http://sodipodi.sourceforge.net/DTD/sodipodi-0.dtd"
   xmlns="http://www.w3.org/2000/svg"
   xmlns:svg="http://www.w3.org/2000/svg">
  <sodipodi:namedview
     id="namedview4"
     pagecolor="#ffffff"
     bordercolor="#000000"
     borderopacity="0.25"
     inkscape:showpageshadow="2"
     inkscape:pageopacity="0.0"
     inkscape:pagecheckerboard="0"
     inkscape:deskcolor="#d1d1d1"
     inkscape:zoom="11.890625"
     inkscape:cx="32"
     inkscape:cy="32"
     inkscape:current-layer="svg4" />
  <defs
     id="defs3051">
    <style
       type="text/css"
       id="current-color-scheme">
      .ColorScheme-Text {
      color:#232629;
      }
      .ColorScheme-Accent {
      color:#3daee9;
      }
    </style>
  </defs>
  <path
     style="fill:currentColor"
     d="m 4.0006635,10 v 1 9 0 c -0.5203637,0.02153 -1.0229638,0.505476 -0.999899,1 h 0.00195 c -4.69e-5,0.004 -0.00195,0.008 -0.00195,0.01172 V 56 c 0.00871,0.999392 0.9801138,2.005992 1.999798,2 v 0 H 58.995109 v 0 c 1.011732,0.02205 1.994216,-0.972534 1.999798,-2 V 21.011719 21 17 c 0.05936,-0.589244 -0.407896,-1.006383 -0.999899,-1 v -4 c 0,-0.003 -0.002,0.004 -0.002,0 h 0.002 v 0 c -0.0061,-1.000671 -0.953819,-1.995969 -1.999798,-2 H 31.997836 L 27.99824,6 H 8.0002595 C 5.9630216,5.99492 4.0363539,7.9703236 4.0006635,10 Z"
     class="ColorScheme-Accent"
     id="path1" />
  <path
     style="fill-opacity:0.33"
     d="m 4.0302775,10 -0.029614,1 v 9 H 21.998846 l 3.999596,-4 h 33.996566 v -4 c 0,-0.003 -0.002,0.004 -0.002,0 h 0.002 C 59.988808,10.988725 58.990992,9.9943186 57.99521,10 H 31.997836 L 27.99824,6 H 8.0002595 C 5.9928069,6.00259 3.994256,8.0072001 4.0302775,10 Z"
     id="path2" />
  <path
     style="fill:#ffffff;fill-opacity:0.2"
     d="m 27.99824,6 2.999697,5 h 1.999798 24.997475 c 1.212814,-0.06389 2.005543,1.005906 1.999798,2 v -1 c 6e-4,-0.992592 -0.988601,-1.993446 -1.999798,-2 H 32.997735 31.997836 Z m -1.999798,10 -3.999596,4 H 3.0007645 v 1 H 22.998745 Z"
     id="path3" />
  <path
     style="fill-opacity:0.2"
     d="m 25.998442,16 -5.999394,3 H 4.0006635 v 1 H 21.998846 Z M 3.0007645,56 c 0.00641,1.008598 0.9937008,2.001463 1.999798,2 v 0 H 58.995109 v 0 0 c 1.002828,0.0016 2.001139,-0.999662 1.999798,-2 z"
     class="ColorScheme-Text"
     id="path4" />
  <path
     d="m 24.222222,44.7 a 1.1111111,1.1 0 0 0 1.111111,1.1 h 13.333334 a 1.1111111,1.1 0 0 0 1.111111,-1.1 c 0,-0.230999 -0.07778,-0.451 -0.2,-0.626999 l -6.466667,-11.088 V 28.2 h -2.222222 v 4.785001 l -6.466667,11.088 c -0.122222,0.175999 -0.2,0.396 -0.2,0.626999 M 25.333333,48 A 3.3333333,3.3 0 0 1 22,44.7 c 0,-0.66 0.2,-1.276 0.555556,-1.793 L 28.666667,32.391001 V 30.4 A 1.1111111,1.1 0 0 1 27.555556,29.3 V 28.2 A 2.2222222,2.2 0 0 1 29.777778,26 h 4.444444 a 2.2222222,2.2 0 0 1 2.222222,2.2 v 1.1 a 1.1111111,1.1 0 0 1 -1.111111,1.1 v 1.991001 L 41.444444,42.907 C 41.8,43.424 42,44.04 42,44.7 A 3.3333333,3.3 0 0 1 38.666667,48 H 25.333333 M 33.111111,41.400001 34.6,39.926 36.744444,43.6 h -9.488888 l 2.955555,-5.070999 2.9,2.871 M 32.555556,37 A 0.55555556,0.55000001 0 0 1 33.111111,37.55 0.55555556,0.55000001 0 0 1 32.555556,38.1 0.55555556,0.55000001 0 0 1 32,37.55 0.55555556,0.55000001 0 0 1 32.555556,37 Z"
     id="path5"
     style="fill:#e5e5e5;fill-opacity:1;stroke-width:0.99999" />
</svg>
