<?xml version="1.0" encoding="UTF-8" standalone="no"?>
<svg
   viewBox="0 0 64 64"
   version="1.1"
   id="svg4"
   sodipodi:docname="folder-food.svg"
   inkscape:version="1.4.2 (unknown)"
   xmlns:inkscape="http://www.inkscape.org/namespaces/inkscape"
   xmlns:sodipodi="http://sodipodi.sourceforge.net/DTD/sodipodi-0.dtd"
   xmlns="http://www.w3.org/2000/svg"
   xmlns:svg="http://www.w3.org/2000/svg">
  <sodipodi:namedview
     id="namedview4"
     pagecolor="#ffffff"
     bordercolor="#000000"
     borderopacity="0.25"
     inkscape:showpageshadow="2"
     inkscape:pageopacity="0.0"
     inkscape:pagecheckerboard="0"
     inkscape:deskcolor="#d1d1d1"
     inkscape:zoom="11.890625"
     inkscape:cx="31.95795"
     inkscape:cy="32"
     inkscape:current-layer="svg4" />
  <defs
     id="defs3051">
    <style
       type="text/css"
       id="current-color-scheme">
      .ColorScheme-Text {
      color:#232629;
      }
      .ColorScheme-Accent {
      color:#3daee9;
      }
    </style>
  </defs>
  <path
     style="fill:currentColor"
     d="m 4.0006635,10 v 1 9 0 c -0.5203637,0.02153 -1.0229638,0.505476 -0.999899,1 h 0.00195 c -4.69e-5,0.004 -0.00195,0.008 -0.00195,0.01172 V 56 c 0.00871,0.999392 0.9801138,2.005992 1.999798,2 v 0 H 58.995109 v 0 c 1.011732,0.02205 1.994216,-0.972534 1.999798,-2 V 21.011719 21 17 c 0.05936,-0.589244 -0.407896,-1.006383 -0.999899,-1 v -4 c 0,-0.003 -0.002,0.004 -0.002,0 h 0.002 v 0 c -0.0061,-1.000671 -0.953819,-1.995969 -1.999798,-2 H 31.997836 L 27.99824,6 H 8.0002595 C 5.9630216,5.99492 4.0363539,7.9703236 4.0006635,10 Z"
     class="ColorScheme-Accent"
     id="path1" />
  <path
     style="fill-opacity:0.33"
     d="m 4.0302775,10 -0.029614,1 v 9 H 21.998846 l 3.999596,-4 h 33.996566 v -4 c 0,-0.003 -0.002,0.004 -0.002,0 h 0.002 C 59.988808,10.988725 58.990992,9.9943186 57.99521,10 H 31.997836 L 27.99824,6 H 8.0002595 C 5.9928069,6.00259 3.994256,8.0072001 4.0302775,10 Z"
     id="path2" />
  <path
     style="fill:#ffffff;fill-opacity:0.2"
     d="m 27.99824,6 2.999697,5 h 1.999798 24.997475 c 1.212814,-0.06389 2.005543,1.005906 1.999798,2 v -1 c 6e-4,-0.992592 -0.988601,-1.993446 -1.999798,-2 H 32.997735 31.997836 Z m -1.999798,10 -3.999596,4 H 3.0007645 v 1 H 22.998745 Z"
     id="path3" />
  <path
     style="fill-opacity:0.2"
     d="m 25.998442,16 -5.999394,3 H 4.0006635 v 1 H 21.998846 Z M 3.0007645,56 c 0.00641,1.008598 0.9937008,2.001463 1.999798,2 v 0 H 58.995109 v 0 0 c 1.002828,0.0016 2.001139,-0.999662 1.999798,-2 z"
     class="ColorScheme-Text"
     id="path4" />
  <path
     d="m 22.097836,27.008769 a 1.1,1.1106242 0 0 0 -1.1,1.110622 v 4.442498 1.665934 c 0,1.876957 1.132998,3.476258 2.75,4.131523 v 6.97472 a 1.6499999,1.6659362 0 0 0 1.649996,1.665935 1.6499999,1.6659362 0 0 0 1.650003,-1.665935 v -6.97472 c 1.616997,-0.655265 2.75,-2.254566 2.75,-4.131523 v -1.665934 -4.442498 a 1.1,1.1106242 0 0 0 -1.1,-1.110622 1.1,1.1106242 0 0 0 -1.099999,1.110622 v 4.442498 a 0.54999998,0.55531208 0 0 1 -0.550001,0.555311 0.54999998,0.55531208 0 0 1 -0.55,-0.555311 v -4.442498 a 1.1,1.1106242 0 0 0 -1.100003,-1.110622 1.1,1.1106242 0 0 0 -1.099998,1.110622 v 4.442498 A 0.54999998,0.55531208 0 0 1 23.747836,33.1172 0.54999998,0.55531208 0 0 1 23.197834,32.561889 v -4.442498 a 1.1,1.1106242 0 0 0 -1.099998,-1.110622 m 18.567996,0 c -0.142999,0 -0.285999,0.09996 -0.417997,0.177699 l -3.850001,2.321204 v 4.164841 h -4.4 v 2.221248 h 1.100002 l 1.1,11.10624 h 6.599999 l 1.1,-11.10624 h 1.100001 v -2.221248 h -4.400003 v -2.954261 l 2.750001,-1.665934 c 0.550001,-0.310978 0.693001,-0.932927 0.373999,-1.488239 -0.230999,-0.399824 -0.638001,-0.610844 -1.056001,-0.55531 z"
     id="path5"
     style="fill:#e5e5e5;fill-opacity:1;stroke-width:0.999997" />
</svg>
