<?xml version="1.0" encoding="UTF-8" standalone="no"?>
<svg
   viewBox="0 0 64 64"
   version="1.1"
   id="svg4"
   sodipodi:docname="folder-KDE.svg"
   inkscape:version="1.4.2 (unknown)"
   xmlns:inkscape="http://www.inkscape.org/namespaces/inkscape"
   xmlns:sodipodi="http://sodipodi.sourceforge.net/DTD/sodipodi-0.dtd"
   xmlns="http://www.w3.org/2000/svg"
   xmlns:svg="http://www.w3.org/2000/svg">
  <sodipodi:namedview
     id="namedview4"
     pagecolor="#ffffff"
     bordercolor="#000000"
     borderopacity="0.25"
     inkscape:showpageshadow="2"
     inkscape:pageopacity="0.0"
     inkscape:pagecheckerboard="0"
     inkscape:deskcolor="#d1d1d1"
     inkscape:zoom="11.890625"
     inkscape:cx="32"
     inkscape:cy="32"
     inkscape:current-layer="svg4" />
  <defs
     id="defs3051">
    <style
       type="text/css"
       id="current-color-scheme">
      .ColorScheme-Text {
      color:#232629;
      }
      .ColorScheme-Accent {
      color:#3daee9;
      }
    </style>
  </defs>
  <path
     style="fill:currentColor"
     d="m 4.0006635,10 v 1 9 0 c -0.5203637,0.02153 -1.0229638,0.505476 -0.999899,1 h 0.00195 c -4.69e-5,0.004 -0.00195,0.008 -0.00195,0.01172 V 56 c 0.00871,0.999392 0.9801138,2.005992 1.999798,2 v 0 H 58.995109 v 0 c 1.011732,0.02205 1.994216,-0.972534 1.999798,-2 V 21.011719 21 17 c 0.05936,-0.589244 -0.407896,-1.006383 -0.999899,-1 v -4 c 0,-0.003 -0.002,0.004 -0.002,0 h 0.002 v 0 c -0.0061,-1.000671 -0.953819,-1.995969 -1.999798,-2 H 31.997836 L 27.99824,6 H 8.0002595 C 5.9630216,5.99492 4.0363539,7.9703236 4.0006635,10 Z"
     class="ColorScheme-Accent"
     id="path1" />
  <path
     style="fill-opacity:0.33"
     d="m 4.0302775,10 -0.029614,1 v 9 H 21.998846 l 3.999596,-4 h 33.996566 v -4 c 0,-0.003 -0.002,0.004 -0.002,0 h 0.002 C 59.988808,10.988725 58.990992,9.9943186 57.99521,10 H 31.997836 L 27.99824,6 H 8.0002595 C 5.9928069,6.00259 3.994256,8.0072001 4.0302775,10 Z"
     id="path2" />
  <path
     style="fill:#ffffff;fill-opacity:0.2"
     d="m 27.99824,6 2.999697,5 h 1.999798 24.997475 c 1.212814,-0.06389 2.005543,1.005906 1.999798,2 v -1 c 6e-4,-0.992592 -0.988601,-1.993446 -1.999798,-2 H 32.997735 31.997836 Z m -1.999798,10 -3.999596,4 H 3.0007645 v 1 H 22.998745 Z"
     id="path3" />
  <path
     style="fill-opacity:0.2"
     d="m 25.998442,16 -5.999394,3 H 4.0006635 v 1 H 21.998846 Z M 3.0007645,56 c 0.00641,1.008598 0.9937008,2.001463 1.999798,2 v 0 H 58.995109 v 0 0 c 1.002828,0.0016 2.001139,-0.999662 1.999798,-2 z"
     class="ColorScheme-Text"
     id="path4" />
  <path
     style="color:#d3dae3;fill:#e5e5e5;fill-opacity:1;stroke-width:0.954772"
     d="m 33.998742,27 -3.999726,0.576689 v 13.780297 l 3.999726,-1.02312 v -5.323878 l 3.999642,6.276298 3.999674,-1.428651 -4.99957,-5.714487 5.001511,-6.188869 L 38.119454,27 33.998742,33.246529 Z m -8.1439,3.737109 c -0.09454,0 -0.189176,0.0348 -0.261675,0.104159 l -1.572179,1.49751 c -0.145005,0.138169 -0.110082,0.335531 0,0.500369 l 1.626876,2.433141 c -0.120579,0.238329 -0.224912,0.483729 -0.312489,0.73481 -0.004,0.0102 -0.01043,0.02081 -0.01338,0.03109 l -2.950953,0.624991 C 22.17083,36.705679 22,36.821234 22,37.016693 v 0.93566 0.935649 c 0,0.195391 0.17083,0.31103 0.371039,0.35342 l 2.950954,0.62507 c 0.0062,0.01841 0.0166,0.03528 0.02352,0.0536 0.08525,0.24387 0.186301,0.48244 0.302712,0.714339 l -1.626866,2.43124 c -0.1101,0.164859 -0.145047,0.36224 0,0.500399 l 1.572187,1.49743 c 0.145066,0.138168 0.378297,0.138168 0.523345,0 l 2.550615,-1.54765 c 0.250697,0.116151 0.509019,0.216819 0.773331,0.3013 0.01725,0.006 0.03323,0.0145 0.05109,0.02051 l 0.65424,2.80892 c 0,0.19537 0.165939,0.35342 0.371075,0.35342 h 2.22048 c 0.205191,0 0.326586,-0.16272 0.371107,-0.35342 l 0.654213,-2.894471 C 34.063634,43.64448 34.35541,43.51576 34.636008,43.367 l 2.490042,1.696509 c 0.145048,0.138179 0.37832,0.138179 0.523387,0 l 1.572146,-1.49742 c 0.145046,-0.138159 0.110144,-0.335539 0,-0.500399 l -0.947171,-1.369089 -0.09937,0.03508 c -0.225258,0.0806 -0.478768,-0.003 -0.603473,-0.19903 l -0.995997,-1.562546 c -0.82987,1.89071 -2.789728,3.21999 -5.075762,3.21999 -3.03732,0 -5.499553,-2.3453 -5.499553,-5.23831 0,-2.22001 1.452671,-4.112909 3.499698,-4.875559 v -1.0436 l -0.0082,0.03319 c -0.02214,0.007 -0.0424,0.01861 -0.06445,0.02631 -0.260822,0.0826 -0.515824,0.1806 -0.763575,0.2939 l -2.546645,-1.545831 c -0.0728,-0.0693 -0.167097,-0.104159 -0.261674,-0.104159 z"
     class="ColorScheme-Text"
     id="path10-7-7" />
</svg>
