<?xml version="1.0" encoding="UTF-8" standalone="no"?>
<svg
   viewBox="0 0 64 64"
   version="1.1"
   id="svg4"
   sodipodi:docname="folder-bitwarden.svg"
   inkscape:version="1.4.2 (unknown)"
   xmlns:inkscape="http://www.inkscape.org/namespaces/inkscape"
   xmlns:sodipodi="http://sodipodi.sourceforge.net/DTD/sodipodi-0.dtd"
   xmlns="http://www.w3.org/2000/svg"
   xmlns:svg="http://www.w3.org/2000/svg">
  <sodipodi:namedview
     id="namedview4"
     pagecolor="#ffffff"
     bordercolor="#000000"
     borderopacity="0.25"
     inkscape:showpageshadow="2"
     inkscape:pageopacity="0.0"
     inkscape:pagecheckerboard="0"
     inkscape:deskcolor="#d1d1d1"
     inkscape:zoom="11.890625"
     inkscape:cx="31.95795"
     inkscape:cy="32"
     inkscape:current-layer="svg4" />
  <defs
     id="defs3051">
    <style
       type="text/css"
       id="current-color-scheme">
      .ColorScheme-Text {
      color:#232629;
      }
      .ColorScheme-Accent {
      color:#3daee9;
      }
    </style>
  </defs>
  <path
     style="fill:currentColor"
     d="m 4.0006635,10 v 1 9 0 c -0.5203637,0.02153 -1.0229638,0.505476 -0.999899,1 h 0.00195 c -4.69e-5,0.004 -0.00195,0.008 -0.00195,0.01172 V 56 c 0.00871,0.999392 0.9801138,2.005992 1.999798,2 v 0 H 58.995109 v 0 c 1.011732,0.02205 1.994216,-0.972534 1.999798,-2 V 21.011719 21 17 c 0.05936,-0.589244 -0.407896,-1.006383 -0.999899,-1 v -4 c 0,-0.003 -0.002,0.004 -0.002,0 h 0.002 v 0 c -0.0061,-1.000671 -0.953819,-1.995969 -1.999798,-2 H 31.997836 L 27.99824,6 H 8.0002595 C 5.9630216,5.99492 4.0363539,7.9703236 4.0006635,10 Z"
     class="ColorScheme-Accent"
     id="path1" />
  <path
     style="fill-opacity:0.33"
     d="m 4.0302775,10 -0.029614,1 v 9 H 21.998846 l 3.999596,-4 h 33.996566 v -4 c 0,-0.003 -0.002,0.004 -0.002,0 h 0.002 C 59.988808,10.988725 58.990992,9.9943186 57.99521,10 H 31.997836 L 27.99824,6 H 8.0002595 C 5.9928069,6.00259 3.994256,8.0072001 4.0302775,10 Z"
     id="path2" />
  <path
     style="fill:#ffffff;fill-opacity:0.2"
     d="m 27.99824,6 2.999697,5 h 1.999798 24.997475 c 1.212814,-0.06389 2.005543,1.005906 1.999798,2 v -1 c 6e-4,-0.992592 -0.988601,-1.993446 -1.999798,-2 H 32.997735 31.997836 Z m -1.999798,10 -3.999596,4 H 3.0007645 v 1 H 22.998745 Z"
     id="path3" />
  <path
     style="fill-opacity:0.2"
     d="m 25.998442,16 -5.999394,3 H 4.0006635 v 1 H 21.998846 Z M 3.0007645,56 c 0.00641,1.008598 0.9937008,2.001463 1.999798,2 v 0 H 58.995109 v 0 0 c 1.002828,0.0016 2.001139,-0.999662 1.999798,-2 z"
     class="ColorScheme-Text"
     id="path4" />
  <path
     d="M 39.747919,27.2467 A 0.81788103,0.80331877 0 0 0 39.150623,27.000044 H 23.84844 a 0.81363896,0.79915221 0 0 0 -0.596436,0.246656 0.81448737,0.79998552 0 0 0 -0.251978,0.584996 v 9.999816 c 0,0.745818 0.147623,1.485807 0.443724,2.220794 0.296102,0.733315 0.664313,1.383301 1.102947,1.954123 0.438638,0.566663 0.960418,1.12165 1.567891,1.660806 a 18.501591,18.172173 0 0 0 1.67988,1.34081 c 0.513301,0.355825 1.047804,0.691654 1.606065,1.009983 0.557421,0.317492 0.954482,0.531656 1.187797,0.643321 0.234158,0.111671 0.424212,0.200827 0.563352,0.259164 a 0.7771567,0.76331953 0 0 0 0.690619,0 c 0.142537,-0.06074 0.330036,-0.147502 0.565901,-0.259164 0.233312,-0.111671 0.630376,-0.328325 1.188638,-0.643321 a 21.469379,21.087119 0 0 0 1.606916,-1.009983 18.572858,18.24217 0 0 0 1.681582,-1.341643 c 0.607464,-0.539156 1.128398,-1.091648 1.567034,-1.660804 0.438639,-0.569157 0.805158,-1.219141 1.102952,-1.954127 0.296949,-0.73249 0.444577,-1.47248 0.444577,-2.220795 v -9.99649 A 0.80600311,0.79165234 0 0 0 39.747919,27.2467 Z m -1.972586,10.678974 c 0,3.619933 -6.275798,6.739044 -6.275798,6.739044 V 29.141671 h 6.275798 v 8.783167 z"
     id="path5"
     style="fill:#e5e5e5;fill-opacity:1;stroke-width:0.99817" />
</svg>
