<?xml version="1.0" encoding="UTF-8" standalone="no"?>
<svg
   viewBox="0 0 64 64"
   version="1.1"
   id="svg4"
   sodipodi:docname="folder-linux.svg"
   inkscape:version="1.4.2 (unknown)"
   xmlns:inkscape="http://www.inkscape.org/namespaces/inkscape"
   xmlns:sodipodi="http://sodipodi.sourceforge.net/DTD/sodipodi-0.dtd"
   xmlns="http://www.w3.org/2000/svg"
   xmlns:svg="http://www.w3.org/2000/svg">
  <sodipodi:namedview
     id="namedview4"
     pagecolor="#ffffff"
     bordercolor="#000000"
     borderopacity="0.25"
     inkscape:showpageshadow="2"
     inkscape:pageopacity="0.0"
     inkscape:pagecheckerboard="0"
     inkscape:deskcolor="#d1d1d1"
     inkscape:zoom="11.890625"
     inkscape:cx="32"
     inkscape:cy="32"
     inkscape:current-layer="svg4" />
  <defs
     id="defs3051">
    <style
       type="text/css"
       id="current-color-scheme">
      .ColorScheme-Text {
      color:#232629;
      }
      .ColorScheme-Accent {
      color:#3daee9;
      }
    </style>
  </defs>
  <path
     style="fill:currentColor"
     d="m 4.0006635,10 v 1 9 0 c -0.5203637,0.02153 -1.0229638,0.505476 -0.999899,1 h 0.00195 c -4.69e-5,0.004 -0.00195,0.008 -0.00195,0.01172 V 56 c 0.00871,0.999392 0.9801138,2.005992 1.999798,2 v 0 H 58.995109 v 0 c 1.011732,0.02205 1.994216,-0.972534 1.999798,-2 V 21.011719 21 17 c 0.05936,-0.589244 -0.407896,-1.006383 -0.999899,-1 v -4 c 0,-0.003 -0.002,0.004 -0.002,0 h 0.002 v 0 c -0.0061,-1.000671 -0.953819,-1.995969 -1.999798,-2 H 31.997836 L 27.99824,6 H 8.0002595 C 5.9630216,5.99492 4.0363539,7.9703236 4.0006635,10 Z"
     class="ColorScheme-Accent"
     id="path1" />
  <path
     style="fill-opacity:0.33"
     d="m 4.0302775,10 -0.029614,1 v 9 H 21.998846 l 3.999596,-4 h 33.996566 v -4 c 0,-0.003 -0.002,0.004 -0.002,0 h 0.002 C 59.988808,10.988725 58.990992,9.9943186 57.99521,10 H 31.997836 L 27.99824,6 H 8.0002595 C 5.9928069,6.00259 3.994256,8.0072001 4.0302775,10 Z"
     id="path2" />
  <path
     style="fill:#ffffff;fill-opacity:0.2"
     d="m 27.99824,6 2.999697,5 h 1.999798 24.997475 c 1.212814,-0.06389 2.005543,1.005906 1.999798,2 v -1 c 6e-4,-0.992592 -0.988601,-1.993446 -1.999798,-2 H 32.997735 31.997836 Z m -1.999798,10 -3.999596,4 H 3.0007645 v 1 H 22.998745 Z"
     id="path3" />
  <path
     style="fill-opacity:0.2"
     d="m 25.998442,16 -5.999394,3 H 4.0006635 v 1 H 21.998846 Z M 3.0007645,56 c 0.00641,1.008598 0.9937008,2.001463 1.999798,2 v 0 H 58.995109 v 0 0 c 1.002828,0.0016 2.001139,-0.999662 1.999798,-2 z"
     class="ColorScheme-Text"
     id="path4" />
  <path
     d="m 41.774545,45.255207 c -0.156285,-0.142254 -0.390709,-0.247796 -0.546994,-0.325812 -0.234425,-0.09178 -0.39071,-0.211091 -0.546995,-0.348762 -0.234431,-0.142256 -0.312569,-0.30287 -0.390716,-0.472658 L 40.2117,43.534358 c -0.07814,-0.367115 -0.156285,-0.601156 -0.234424,-0.706696 -0.07815,-0.105549 -0.156285,-0.169795 -0.31257,-0.169795 0.156285,-0.504781 0.234424,-1.027921 0.234424,-1.564831 0,-1.082987 -0.234424,-2.09256 -0.62514,-2.872677 -0.312564,-0.853543 -0.854967,-1.711676 -1.558246,-2.487209 -0.31257,-0.468075 -0.625134,-0.853543 -0.854967,-1.243603 -0.234424,-0.312048 -0.390709,-0.624097 -0.546994,-0.931557 -0.156286,-0.234034 -0.234425,-0.546083 -0.312571,-0.853543 -0.07814,-0.390058 -0.07814,-0.702109 -0.156284,-0.931558 0,-0.234034 -0.07814,-0.546084 -0.07814,-1.009567 -0.07815,-0.546084 -0.07815,-0.931552 -0.156285,-1.321617 -0.07815,-0.624093 -0.234432,-1.087578 -0.390709,-1.555652 C 34.985363,27.495995 34.750939,27.10593 34.438369,26.876486 34.203944,26.642452 33.891375,26.486427 33.583402,26.330403 33.192693,26.174378 32.880122,26.096362 32.650289,26.096362 32.420463,26 32.186032,26 31.956205,26 c -0.62514,0 -1.167537,0.07801 -1.636392,0.234033 -0.468855,0.156025 -0.781419,0.468076 -1.011252,0.780118 -0.266601,0.312049 -0.445867,0.702114 -0.546995,1.087582 -0.101126,0.390059 -0.147089,0.780125 -0.147089,1.321618 0,0.702108 0.03675,1.477642 0.114913,2.257759 0.08733,0.780124 0.124109,1.243608 0.124109,1.399632 0,0.312043 -0.07815,0.702109 -0.225236,1.009568 -0.14709,0.307459 -0.413691,0.702108 -0.818193,1.165592 l -0.583768,0.702107 c -0.468854,0.546084 -0.763034,1.087577 -0.887142,1.633661 -0.156286,0.624098 -0.294187,1.087582 -0.427484,1.399632 -0.124108,0.312049 -0.294187,0.624092 -0.524013,1.04169 l -0.271199,0.491018 c -0.280393,0.523139 -0.413697,0.917789 -0.413697,1.197715 -0.01377,0.04589 -0.01377,0.123901 -0.01377,0.211091 0,0.123902 0.03215,0.224853 0.09193,0.302869 -0.05514,0.06425 -0.09193,0.123902 -0.124109,0.178968 -0.01377,0.03669 -0.03215,0.08719 -0.04597,0.133082 -0.01377,0.0321 -0.03215,0.100952 -0.06895,0.192731 -0.03215,0.09178 -0.07814,0.192736 -0.133298,0.321229 -0.165479,0.09178 -0.271204,0.133081 -0.344746,0.133081 h -0.900936 c -0.170072,0 -0.335551,0.100953 -0.505623,0.29369 -0.170078,0.192738 -0.248217,0.468074 -0.248217,0.807656 0,0.110133 0.03215,0.367116 0.09193,0.770944 0.06436,0.413002 0.09193,0.647037 0.09193,0.725051 0,0.07801 -0.01377,0.156025 -0.03215,0.234034 -0.01377,0.08718 -0.04597,0.156025 -0.07815,0.224861 -0.03215,0.07801 -0.06436,0.146845 -0.110315,0.215681 -0.03215,0.07801 -0.07815,0.156025 -0.133304,0.243213 -0.05514,0.07801 -0.110316,0.165205 -0.160883,0.247804 C 22.023004,47.099965 22,47.233046 22,47.356949 c 0,0.123901 0.05514,0.234033 0.160882,0.330401 0.114914,0.09637 0.271199,0.178969 0.46885,0.238625 0.202253,0.07343 0.390715,0.123901 0.551598,0.160614 0.179266,0.03669 0.381514,0.07343 0.602152,0.105548 0.225236,0.03669 0.367728,0.06425 0.427484,0.07801 0.62973,0.142255 1.355997,0.357935 2.17419,0.637862 0.809003,0.293696 1.411156,0.44513 1.792677,0.44513 0.606749,0 1.043428,-0.243213 1.434137,-0.706697 v 0.02295 c 0.546995,-0.270747 1.323822,-0.408419 2.339672,-0.408419 0.62514,0 1.636392,0.07343 2.882068,0.224861 0.234425,0.472663 0.62514,0.784707 1.245681,0.949911 L 36.626386,49.5 c 0.31257,0 0.625134,-0.06883 0.854967,-0.21109 0.234424,-0.133083 0.546995,-0.348763 0.854967,-0.651633 l 0.781436,-0.660809 c 0.390709,-0.330408 0.781419,-0.610329 1.167536,-0.839779 0.46885,-0.22027 0.781419,-0.376295 0.933107,-0.454304 0.234431,-0.06883 0.39071,-0.178968 0.546995,-0.334993 0.156284,-0.142262 0.23443,-0.334992 0.23443,-0.601156 0.0044,-0.174378 -0.07355,-0.334992 -0.225235,-0.491017 m -5.36883,-8.241744 c 0.390709,0.07802 0.703279,0.312049 1.011252,0.780124 0.31257,0.468073 0.468855,1.009566 0.468855,1.789684 0,0.559853 -0.07815,1.197714 -0.31257,1.922772 0.07814,0.01375 0.234424,0.0321 0.31257,0.0367 0.07814,0 0.07814,0 0.156285,0.01375 0,0 0.07814,0 0.156285,0.0092 0.468849,0.06425 0.854967,0.211091 1.089391,0.445124 0.234425,0.224861 0.31257,0.426772 0.31257,0.601156 0,0.06884 0,0.100953 -0.07815,0.100953 0,0 -0.07814,-0.0459 -0.07814,-0.146845 -0.07814,-0.100959 -0.156285,-0.211091 -0.234424,-0.325813 -0.07815,-0.123902 -0.234431,-0.23404 -0.547001,-0.334992 -0.234424,-0.110139 -0.625133,-0.165205 -1.011252,-0.165205 -0.234424,0 -0.390709,0.06883 -0.625134,0.201917 -0.156285,0.133075 -0.23443,0.266157 -0.390715,0.394649 -0.07814,0.133075 -0.156279,0.201911 -0.156279,0.201911 -0.07815,0 -0.07815,-0.03669 -0.07815,-0.110132 0.234425,-0.449721 0.546994,-0.738821 0.854967,-0.862723 0.31257,-0.82601 0.390709,-1.468462 0.390709,-1.904412 0,-0.546083 -0.07814,-1.009568 -0.312563,-1.555652 -0.234431,-0.468073 -0.625141,-0.780123 -1.011252,-0.931558 0.0044,-0.0826 0.0044,-0.0826 0.08274,-0.160615 m -4.288626,-7.296422 q 0.351636,-0.234033 0.703278,-0.234033 c 0.312571,0 0.546995,0.07801 0.781419,0.312048 0.156285,0.234034 0.234431,0.546084 0.234431,1.009568 0,0.390059 -0.07815,0.702108 -0.156285,1.165592 -0.156285,-0.07802 -0.23443,-0.156024 -0.390715,-0.156024 -0.07814,0 -0.156279,-0.07802 -0.156279,-0.07802 q 0.468848,-0.117016 0.468848,-0.702107 c 0,-0.234035 -0.07814,-0.390059 -0.156284,-0.624093 -0.156285,-0.156025 -0.312564,-0.312049 -0.546995,-0.312049 q -0.234425,0 -0.468855,0.234033 c -0.156285,0.234041 -0.156285,0.390059 -0.156285,0.702109 0,0.156024 0,0.312049 0.07815,0.390064 -0.07815,0 -0.156285,-0.07802 -0.234424,-0.07802 -0.156286,-0.312048 -0.234431,-0.624099 -0.234431,-1.009566 0,-0.229445 0.07815,-0.38547 0.234431,-0.61951 m 0.859564,0.858132 c 0,-0.07801 -0.07815,-0.07801 -0.07815,-0.156023 0.07815,0 0.156285,-0.07801 0.156285,-0.07801 0.07815,0 0.156285,0.07801 0.234425,0.156025 0.07815,0.07801 0.07815,0.156024 0.07815,0.234033 0,0.07802 0,0.156025 0.07814,0.234041 h -0.156286 c -0.07814,-0.234041 -0.156279,-0.390065 -0.312564,-0.390065 m -0.234431,1.165592 c 0.781425,0.23404 1.167537,0.468074 1.245683,0.624098 0.07814,0 0.07814,0.07801 0.07814,0.156026 0,0.234034 -0.156285,0.390058 -0.31257,0.546083 l -0.70328,0.468074 c -0.781418,0.546083 -1.401961,0.853543 -1.948955,0.853543 -0.390716,0 -0.781425,-0.156025 -1.089398,-0.468074 l -0.468855,-0.468067 c -0.07814,-0.07801 -0.156285,-0.234034 -0.234424,-0.390058 0.468855,0.390058 1.011252,0.624098 1.558246,0.624098 0.62514,0 1.401968,-0.312048 2.417817,-1.009566 0,0 0,-0.07802 -0.07815,-0.07802 v -0.156025 c -1.011252,0.780124 -1.792677,1.087584 -2.41781,1.087584 -0.468856,0 -0.933114,-0.234034 -1.401968,-0.624099 -0.07814,-0.156025 -0.156279,-0.234034 -0.156279,-0.234034 0,-0.31205 0.312564,-0.624098 0.781419,-0.931558 0.546994,-0.31205 0.933112,-0.468068 1.167537,-0.468068 0.317168,0 0.859564,0.156018 1.562844,0.468068 m -2.960207,-1.165592 v -0.156024 c 0.07814,0 0.07814,-0.07801 0.07814,-0.07801 0.234424,0 0.390709,0.234033 0.390709,0.624099 h -0.156281 c 0,-0.156025 -0.07814,-0.234041 -0.07814,-0.390066 z m -0.468855,-0.546083 c 0.07814,-0.234034 0.31257,-0.390059 0.546995,-0.390059 0.312569,0 0.468854,0.156025 0.625139,0.390059 0.156286,0.234034 0.156286,0.468075 0.156286,0.702108 0,0.312049 0,0.468074 -0.07815,0.468074 v 0.07801 h -0.07814 v -0.156024 c 0,-0.234035 -0.07815,-0.468069 -0.156285,-0.702108 -0.156285,-0.156025 -0.23443,-0.234034 -0.390709,-0.234034 -0.156285,0 -0.312571,0.07801 -0.390716,0.234034 -0.156285,0.156024 -0.156285,0.312049 -0.156285,0.54609 0,0.390058 0.07815,0.624091 0.390716,0.780116 -0.07815,0.07802 -0.156286,0.07802 -0.234431,0.156026 -0.31257,-0.312051 -0.422886,-0.6241 -0.422886,-0.93156 0,-0.394648 0.03215,-0.628681 0.188462,-0.940731 m 0.06895,18.438384 c -0.372325,0.468068 -0.827388,0.706698 -1.369791,0.706698 -0.211443,0 -0.786016,-0.178975 -1.728317,-0.523141 -0.942307,-0.344171 -1.77889,-0.573622 -2.500553,-0.679164 v -0.0044 c -0.942302,-0.123901 -1.457126,-0.334992 -1.535265,-0.637862 0,-0.178968 0.101127,-0.426771 0.29418,-0.761764 0.193059,-0.321229 0.289588,-0.637869 0.289588,-0.959092 0,-0.165203 -0.03215,-0.394647 -0.09193,-0.683754 -0.06436,-0.29369 -0.09193,-0.504781 -0.09193,-0.628682 0,-0.270747 0.101126,-0.52773 0.294179,-0.752591 0.147097,-0.07801 0.427484,-0.123901 0.841181,-0.123901 h 0.211442 c 0.101128,-0.0092 0.170072,-0.0092 0.211444,-0.0092 0.179266,-0.03669 0.31257,-0.07802 0.390709,-0.123902 0.07815,-0.05505 0.124108,-0.165204 0.147096,-0.325819 0.01377,-0.169787 0.07814,-0.334993 0.188462,-0.481838 0.110316,-0.146844 0.335551,-0.256982 0.661907,-0.321228 0.257413,0.06425 0.491837,0.178974 0.694085,0.357941 0.211443,0.178968 0.372326,0.357937 0.473453,0.536904 0.114913,0.165204 0.266599,0.394649 0.427482,0.702109 0.170078,0.302874 0.303375,0.527729 0.413697,0.674574 l 0.528604,0.706698 c 0.887144,1.128886 1.333017,2.055848 1.333017,2.794668 -0.0044,0.206502 -0.0044,0.385476 -0.08274,0.53691 m 1.714531,-1.523534 c -0.933112,0 -1.636392,-0.215681 -1.962748,-0.660805 -0.165481,-0.30287 -0.243619,-0.458894 -0.243619,-0.468074 0,-0.03669 0.0092,-0.05505 0.02299,-0.05505 0.179266,0 0.390709,-0.09178 0.546994,-0.279927 0.234425,-0.178969 0.31257,-0.344173 0.31257,-0.504781 0,-0.312049 -0.468855,-0.839779 -1.346803,-1.601543 l -0.827388,-0.53691 c -0.652718,-0.472657 -1.066415,-0.848954 -1.241084,-1.105936 -0.156285,-0.266157 -0.24362,-0.569027 -0.24362,-0.917789 0,-0.472658 0.170078,-1.119699 0.496434,-1.821807 0.326357,-0.780123 0.602152,-1.321618 0.827387,-1.555651 l 0.07814,0.07801 c 0.06436,0 0.101127,0 0.114919,0.07801 -0.271198,0.312049 -0.551591,0.780124 -0.831984,1.477642 -0.289589,0.702107 -0.427483,1.289493 -0.427483,1.826403 0,0.435945 0.170071,0.770943 0.524013,1.009567 -0.03215,-0.188147 -0.04598,-0.371705 -0.04598,-0.550672 0,-0.894846 0.321764,-1.977839 0.951495,-3.143431 l 0.583769,-1.165593 c 0.01377,0 0.03676,-0.156024 0.06895,-0.312049 0.02299,-0.234033 0.142492,-0.546083 0.358532,-1.087576 l 0.491837,-0.931559 c 0.156285,-0.312049 0.23443,-0.624092 0.23443,-0.853543 l 0.46885,0.390059 c 0.23443,0.31205 0.62514,0.390065 1.089397,0.390065 0.546995,0 1.167537,-0.23404 1.948955,-0.780124 l 0.70328,-0.546083 c 0.156285,0.31205 0.312571,0.702109 0.468855,1.087577 0.234431,0.390065 0.390709,0.780123 0.62514,1.165592 0,0.390065 0.07814,0.624099 0.156285,0.931559 0.156285,0.234033 0.234425,0.468074 0.390708,0.702107 l 0.468856,0.702108 c 0.156285,0.31205 0.312569,0.702108 0.390709,1.165593 0.156285,0.546083 0.156285,1.128878 0.156285,1.835576 0,0.468075 0,0.986625 -0.07815,1.58778 -0.156279,-0.114727 -0.312564,-0.169794 -0.468849,-0.169794 -0.234431,0 -0.390716,0.114722 -0.546995,0.367116 -0.156283,0.247803 -0.234429,0.628688 -0.234429,1.13347 v 0.289105 c 0.07815,0.100953 0.07815,0.344173 0.07815,0.729641 -1.020447,1.404217 -2.344269,2.101734 -4.0588,2.101734 M 41.54475,46.287939 c -0.156285,0.123901 -0.31257,0.21568 -0.547001,0.279926 -0.156285,0.06883 -0.468848,0.192732 -0.781419,0.380879 -0.390709,0.188148 -0.70328,0.403829 -1.011252,0.651631 l -1.323822,1.14265 c -0.07815,0.0367 -0.07815,0.07801 -0.23443,0.133076 -0.07814,0.06425 -0.156279,0.114727 -0.234424,0.169794 -0.07814,0.06425 -0.234425,0.114721 -0.39071,0.146845 q -0.234431,0.06883 -0.468855,0.06883 c -0.62514,0 -1.167537,-0.293696 -1.480106,-0.881076 v -0.01834 l 0.156285,-0.862722 c 0,-0.30746 0,-0.582797 0.07815,-0.82601 0,-0.243213 0.07814,-0.39465 0.07814,-0.468075 v -2.418373 c 0,-0.81683 0.156285,-1.220657 0.546995,-1.220657 0.156285,0 0.23443,0.06883 0.390716,0.201916 0.07814,0.325813 0.156284,0.614919 0.312563,0.862716 0.234431,0.334999 0.547001,0.504788 1.167537,0.504788 0.156285,0 0.390716,-0.06883 0.62514,-0.201911 0.156285,-0.133082 0.390709,-0.270753 0.468855,-0.426778 0.156285,-0.156019 0.31257,-0.30287 0.468855,-0.435945 0.07814,-0.133082 0.234424,-0.201918 0.312564,-0.201918 0.07815,0 0.07815,0.0092 0.07815,0.0321 0.07814,0.08718 0.07814,0.243213 0.156285,0.44972 l 0.07814,0.449715 c 0.07815,0.367115 0.234431,0.647041 0.390709,0.848953 0.234431,0.211091 0.390716,0.334993 0.547001,0.390059 0.156285,0.05505 0.312564,0.14226 0.468849,0.266163 0.156285,0.123901 0.31257,0.29369 0.31257,0.52314 -0.0092,0.192731 -0.08733,0.344172 -0.165474,0.458894 M 31.340305,31.663024 c 0,0 -0.07815,-0.07802 -0.07815,-0.156025 0,-0.07802 0,-0.07802 0.07815,-0.07802 l 0.156286,0.07802 c 0.07814,0.07801 0.156284,0.156025 0.156284,0.234034 0,0.07802 -0.07815,0.07802 -0.07815,0.07802 h -0.07814 c -0.07815,0 -0.07815,-0.07802 -0.156285,-0.156025 m -0.781425,0.07801 c 0,-0.07801 0,-0.156025 0.07815,-0.234035 0.156284,0 0.234424,-0.07802 0.234424,-0.07802 0.07815,0 0.07815,0.07802 0.07815,0.07802 0,0.07801 -0.07815,0.156025 -0.234431,0.31205 h -0.07814 c -0.07815,0 -0.07815,0 -0.07815,-0.07802"
     style="fill:#e5e5e5;fill-opacity:1;stroke-width:0.84049"
     id="path5" />
</svg>
