<?xml version="1.0" encoding="UTF-8" standalone="no"?>
<svg
   viewBox="0 0 64 64"
   version="1.1"
   id="svg4"
   sodipodi:docname="folder-raspberrypi.svg"
   inkscape:version="1.4.2 (unknown)"
   xmlns:inkscape="http://www.inkscape.org/namespaces/inkscape"
   xmlns:sodipodi="http://sodipodi.sourceforge.net/DTD/sodipodi-0.dtd"
   xmlns="http://www.w3.org/2000/svg"
   xmlns:svg="http://www.w3.org/2000/svg">
  <sodipodi:namedview
     id="namedview4"
     pagecolor="#ffffff"
     bordercolor="#000000"
     borderopacity="0.25"
     inkscape:showpageshadow="2"
     inkscape:pageopacity="0.0"
     inkscape:pagecheckerboard="0"
     inkscape:deskcolor="#d1d1d1"
     inkscape:zoom="11.890625"
     inkscape:cx="32.04205"
     inkscape:cy="32"
     inkscape:current-layer="svg4" />
  <defs
     id="defs3051">
    <style
       type="text/css"
       id="current-color-scheme">
      .ColorScheme-Text {
      color:#232629;
      }
      .ColorScheme-Accent {
      color:#3daee9;
      }
    </style>
  </defs>
  <path
     style="fill:currentColor"
     d="m 4.0006635,10 v 1 9 0 c -0.5203637,0.02153 -1.0229638,0.505476 -0.999899,1 h 0.00195 c -4.69e-5,0.004 -0.00195,0.008 -0.00195,0.01172 V 56 c 0.00871,0.999392 0.9801138,2.005992 1.999798,2 v 0 H 58.995109 v 0 c 1.011732,0.02205 1.994216,-0.972534 1.999798,-2 V 21.011719 21 17 c 0.05936,-0.589244 -0.407896,-1.006383 -0.999899,-1 v -4 c 0,-0.003 -0.002,0.004 -0.002,0 h 0.002 v 0 c -0.0061,-1.000671 -0.953819,-1.995969 -1.999798,-2 H 31.997836 L 27.99824,6 H 8.0002595 C 5.9630216,5.99492 4.0363539,7.9703236 4.0006635,10 Z"
     class="ColorScheme-Accent"
     id="path1" />
  <path
     style="fill-opacity:0.33"
     d="m 4.0302775,10 -0.029614,1 v 9 H 21.998846 l 3.999596,-4 h 33.996566 v -4 c 0,-0.003 -0.002,0.004 -0.002,0 h 0.002 C 59.988808,10.988725 58.990992,9.9943186 57.99521,10 H 31.997836 L 27.99824,6 H 8.0002595 C 5.9928069,6.00259 3.994256,8.0072001 4.0302775,10 Z"
     id="path2" />
  <path
     style="fill:#ffffff;fill-opacity:0.2"
     d="m 27.99824,6 2.999697,5 h 1.999798 24.997475 c 1.212814,-0.06389 2.005543,1.005906 1.999798,2 v -1 c 6e-4,-0.992592 -0.988601,-1.993446 -1.999798,-2 H 32.997735 31.997836 Z m -1.999798,10 -3.999596,4 H 3.0007645 v 1 H 22.998745 Z"
     id="path3" />
  <path
     style="fill-opacity:0.2"
     d="m 25.998442,16 -5.999394,3 H 4.0006635 v 1 H 21.998846 Z M 3.0007645,56 c 0.00641,1.008598 0.9937008,2.001463 1.999798,2 v 0 H 58.995109 v 0 0 c 1.002828,0.0016 2.001139,-0.999662 1.999798,-2 z"
     class="ColorScheme-Text"
     id="path4" />
  <path
     d="m 38.993401,35.993541 -0.157015,-0.279225 c 0.0046,-1.993202 -0.920276,-2.805087 -1.997567,-3.42367 0.327116,-0.08591 0.662947,-0.158935 0.754542,-0.567029 0.56263,-0.141759 0.676033,-0.403795 0.732735,-0.67872 0.148285,-0.09879 0.636771,-0.373725 0.584437,-0.841959 0.274772,-0.18901 0.427423,-0.433865 0.34892,-0.777521 0.296579,-0.322181 0.375086,-0.588513 0.2486,-0.833368 0.353283,-0.442458 0.196272,-0.670127 0.04358,-0.897797 0.270417,-0.485417 0.03484,-1.000899 -0.706557,-0.914983 -0.296582,-0.43387 -0.937714,-0.335067 -1.038027,-0.335067 -0.113403,-0.137463 -0.257329,-0.257741 -0.710928,-0.201895 -0.29222,-0.262036 -0.619331,-0.214785 -0.959527,-0.09021 -0.401261,-0.313591 -0.667309,-0.06018 -0.968247,0.03431 -0.484128,-0.154649 -0.59753,0.06018 -0.837407,0.146054 -0.527747,-0.111695 -0.689119,0.128867 -0.946446,0.382309 l -0.296576,-0.0046 c -0.798146,0.463978 -1.195044,1.409027 -1.334615,1.894444 -0.139572,-0.485417 -0.536462,-1.430466 -1.334616,-1.894398 l -0.296583,0.0046 c -0.25296,-0.25344 -0.414343,-0.494002 -0.946442,-0.382306 -0.239886,-0.08592 -0.348918,-0.300709 -0.837405,-0.146057 -0.200628,-0.06018 -0.383808,-0.189012 -0.597527,-0.184721 -0.113399,0.0046 -0.235517,0.04296 -0.370721,0.150357 -0.340204,-0.128874 -0.66731,-0.17183 -0.959533,0.09021 -0.453598,-0.06018 -0.59752,0.06018 -0.710922,0.201896 -0.100296,0 -0.741454,-0.0988 -1.038031,0.335067 -0.741459,-0.08592 -0.976981,0.429566 -0.710931,0.910684 -0.152643,0.231969 -0.309661,0.459639 0.04361,0.902095 -0.126483,0.244856 -0.04797,0.511186 0.248605,0.83337 -0.07853,0.343655 0.07417,0.588511 0.348919,0.777519 -0.05238,0.472526 0.440512,0.747449 0.584443,0.84196 0.05674,0.274926 0.174461,0.532666 0.732728,0.678721 0.09158,0.408092 0.427425,0.481119 0.754538,0.567026 -1.077288,0.618584 -2.001919,1.430468 -1.99756,3.423672 l -0.157012,0.279225 c -1.238666,0.738858 -2.350847,3.122972 -0.610603,5.056038 0.113396,0.605692 0.305301,1.039558 0.475394,1.520673 0.252972,1.941654 1.910336,2.84805 2.346481,2.955437 0.641146,0.481119 1.321536,0.936463 2.246177,1.254347 0.867935,0.884914 1.81001,1.219978 2.760823,1.219978 h 0.04359 c 0.94644,0 1.888525,-0.335064 2.760824,-1.219978 0.920278,-0.317884 1.605029,-0.773228 2.246169,-1.254347 0.436149,-0.107387 2.093514,-1.018075 2.346487,-2.955437 0.170092,-0.481115 0.361998,-0.914981 0.475397,-1.520673 1.744598,-1.937367 0.628058,-4.31718 -0.606249,-5.056038 m -1.11653,-0.343671 c -0.06547,0.803297 -4.248096,-2.7965 -3.528449,-2.91678 1.962673,-0.322175 3.593868,0.824775 3.528449,2.91678 m -4.592654,-8.389499 c 0.03484,0.180422 0.07852,0.296408 0.122123,0.330775 0.231156,-0.249154 0.42306,-0.502604 0.724006,-0.743153 0,0.141747 -0.06982,0.296396 0.109039,0.403789 0.157013,-0.214786 0.37945,-0.408092 0.667303,-0.575618 -0.139567,0.236262 -0.02173,0.313576 0.05237,0.412378 0.218074,-0.18901 0.431784,-0.378017 0.833044,-0.528366 -0.113401,0.133167 -0.266053,0.266329 -0.100297,0.425278 0.22679,-0.141764 0.453588,-0.283521 0.994415,-0.382318 -0.122126,0.133162 -0.370728,0.270624 -0.218076,0.403791 0.283499,-0.111686 0.597526,-0.189014 0.946446,-0.231964 -0.165734,0.137463 -0.305302,0.270625 -0.170101,0.378019 0.305308,-0.0945 0.724007,-0.219082 1.133991,-0.111688 l -0.261691,0.262037 c -0.03047,0.03431 0.606245,0.03002 1.029312,0.03431 -0.152652,0.214782 -0.309667,0.416683 -0.401254,0.781815 0.03922,0.03863 0.248602,0.01718 0.444872,0 -0.200634,0.425276 -0.54955,0.52837 -0.628056,0.713086 0.122122,0.09451 0.292214,0.06876 0.479765,0.0046 -0.143934,0.296403 -0.449235,0.502597 -0.689117,0.74316 0.0611,0.04293 0.165736,0.06876 0.4187,0.03861 -0.222436,0.236262 -0.488487,0.451051 -0.806872,0.644357 0.05673,0.06448 0.248606,0.06448 0.431786,0.06448 -0.287861,0.283517 -0.658582,0.425272 -1.003139,0.609991 0.170096,0.120278 0.296579,0.09021 0.43178,0.08591 -0.24424,0.201897 -0.662946,0.309291 -1.051117,0.425278 0.07417,0.111688 0.14829,0.146054 0.305304,0.180421 -0.409982,0.22767 -0.994421,0.120275 -1.160158,0.236261 0.03923,0.111685 0.152657,0.18901 0.287862,0.249149 -0.658585,0.03862 -2.46424,-0.02572 -2.808803,-1.387512 0.667315,-0.747447 1.901614,-1.615182 4.021294,-2.6934 -1.648645,0.549854 -3.140273,1.288708 -4.383297,2.302491 -1.478546,-0.670127 -0.466679,-2.388406 0.248607,-3.075718 m -1.535247,4.927168 c 1.038036,-0.01288 2.324676,0.760338 2.320311,1.490607 -0.0046,0.644354 -0.902829,1.164131 -2.311588,1.155544 -1.378232,-0.01718 -2.307227,-0.657245 -2.302863,-1.280121 0.0046,-0.511187 1.125262,-1.396103 2.29414,-1.36603 m -5.24687,-0.554203 c 0.157012,-0.03002 0.231157,-0.06448 0.305303,-0.180416 -0.388174,-0.120282 -0.806881,-0.227677 -1.051119,-0.425276 0.135201,0.0046 0.252964,0.03002 0.431786,-0.08591 -0.348916,-0.184712 -0.715286,-0.330769 -1.003145,-0.609987 0.178825,-0.0046 0.370729,-0.0046 0.431786,-0.06448 -0.318388,-0.193308 -0.584437,-0.408089 -0.806867,-0.644352 0.252959,0.03002 0.357639,0.0046 0.418693,-0.03865 -0.239882,-0.240555 -0.545183,-0.44675 -0.689114,-0.743153 0.187549,0.06448 0.357643,0.08591 0.479762,-0.0046 -0.08287,-0.180417 -0.431782,-0.287808 -0.628049,-0.713085 0.196267,0.01718 0.405617,0.03866 0.444875,0 -0.09595,-0.365133 -0.248608,-0.571324 -0.401263,-0.786112 0.418702,-0.0046 1.055487,0.0046 1.029316,-0.03431 l -0.261702,-0.262016 c 0.409983,-0.111686 0.828682,0.01718 1.13399,0.11169 0.135205,-0.107394 -0.0046,-0.240558 -0.170103,-0.37802 0.348921,0.04727 0.66295,0.124571 0.946448,0.231963 0.152657,-0.133166 -0.100306,-0.270627 -0.218079,-0.40379 0.536472,0.09879 0.767628,0.240555 0.994424,0.382316 0.165734,-0.154647 0.0095,-0.287815 -0.100297,-0.425277 0.396894,0.15035 0.606241,0.343656 0.828684,0.532666 0.07417,-0.09879 0.1919,-0.171828 0.05235,-0.412391 0.287863,0.163241 0.505937,0.356549 0.667312,0.575633 0.178821,-0.111694 0.104676,-0.262043 0.109039,-0.403805 0.300938,0.240563 0.488486,0.494011 0.724002,0.743162 0.04802,-0.03431 0.08724,-0.146055 0.122124,-0.330769 0.710927,0.683013 1.72715,2.401296 0.261693,3.08431 -1.247391,-1.013783 -2.739019,-1.74835 -4.383301,-2.302496 2.115323,1.073922 3.349628,1.945952 4.021296,2.684813 -0.344563,1.366033 -2.150218,1.426174 -2.808805,1.387505 0.135206,-0.06448 0.248604,-0.133159 0.287864,-0.249147 -0.174459,-0.111686 -0.758904,-0.0092 -1.168879,-0.236262 m 2.429352,1.043856 c 0.724001,0.120275 -3.463029,3.715777 -3.528454,2.916776 -0.0611,-2.096298 1.57014,-3.243251 3.528454,-2.916776 m -4.39203,8.015775 c -1.020587,-0.80759 -1.343338,-3.165929 0.540829,-4.226967 1.138352,-0.296403 0.383814,4.630759 -0.540829,4.226967 m 3.964599,4.222671 c -0.571358,0.343656 -1.967033,0.201895 -2.957091,-1.198505 -0.667313,-1.177014 -0.584443,-2.371218 -0.113398,-2.719176 0.702199,-0.420976 1.783846,0.146056 2.616893,1.099705 0.72837,0.854842 1.059841,2.37122 0.453596,2.817976 m -1.125261,-5.137652 c -1.042396,-0.674426 -1.2343,-2.225172 -0.423062,-3.440855 0.811233,-1.211391 2.342118,-1.653847 3.384517,-0.979421 1.042395,0.674427 1.2343,2.22517 0.423065,3.440857 -0.81124,1.211382 -2.342127,1.649546 -3.38452,0.979419 m 4.370214,7.53895 c -1.260468,0.05156 -2.499137,-1.018085 -2.481688,-1.387511 -0.01744,-0.545555 1.539609,-0.970829 2.551471,-0.945058 1.02059,-0.04293 2.390096,0.322179 2.390096,0.811893 0.01744,0.468228 -1.238658,1.53786 -2.459879,1.520676 m 2.599451,-5.373919 v 0.01288 c 0,1.267233 -1.147075,2.30679 -2.538386,2.30679 -1.39132,0 -2.538389,-1.039557 -2.538389,-2.30679 v -0.02572 c 0,-1.26723 1.147069,-2.30679 2.538389,-2.30679 1.391311,0 2.538386,1.03956 2.538386,2.30679 z m -1.59193,-3.269005 c -0.811238,-1.211388 -0.619333,-2.766429 0.423065,-3.440856 1.046758,-0.674418 2.573279,-0.231966 3.384514,0.979418 0.811242,1.21139 0.619339,2.766431 -0.42306,3.440853 -1.042398,0.670136 -2.573277,0.227676 -3.384519,-0.979415 m 5.142199,5.111875 c -1.086014,1.486314 -2.560195,1.542159 -3.105378,1.129775 -0.571358,-0.532668 -0.135214,-2.186516 0.649857,-3.092905 0.902833,-1.005196 1.862358,-1.653843 2.529666,-1.142657 0.449233,0.442456 0.715282,2.109191 -0.07417,3.105787 m 0.85485,-3.153038 c -0.924633,0.403796 -1.679169,-4.527667 -0.540819,-4.226965 1.884162,1.061038 1.552686,3.419374 0.540819,4.226965"
     style="fill:#e5e5e5;fill-opacity:1;stroke-width:0.929238"
     id="path5" />
</svg>
