<?xml version="1.0" encoding="UTF-8" standalone="no"?>
<svg
   viewBox="0 0 64 64"
   version="1.1"
   id="svg4"
   sodipodi:docname="folder-build.svg"
   inkscape:version="1.4.2 (unknown)"
   xmlns:inkscape="http://www.inkscape.org/namespaces/inkscape"
   xmlns:sodipodi="http://sodipodi.sourceforge.net/DTD/sodipodi-0.dtd"
   xmlns="http://www.w3.org/2000/svg"
   xmlns:svg="http://www.w3.org/2000/svg">
  <sodipodi:namedview
     id="namedview4"
     pagecolor="#ffffff"
     bordercolor="#000000"
     borderopacity="0.25"
     inkscape:showpageshadow="2"
     inkscape:pageopacity="0.0"
     inkscape:pagecheckerboard="0"
     inkscape:deskcolor="#d1d1d1"
     inkscape:zoom="11.890625"
     inkscape:cx="32"
     inkscape:cy="32"
     inkscape:current-layer="svg4" />
  <defs
     id="defs3051">
    <style
       type="text/css"
       id="current-color-scheme">
      .ColorScheme-Text {
      color:#232629;
      }
      .ColorScheme-Accent {
      color:#3daee9;
      }
    </style>
  </defs>
  <path
     style="fill:currentColor"
     d="m 4.0006635,10 v 1 9 0 c -0.5203637,0.02153 -1.0229638,0.505476 -0.999899,1 h 0.00195 c -4.69e-5,0.004 -0.00195,0.008 -0.00195,0.01172 V 56 c 0.00871,0.999392 0.9801138,2.005992 1.999798,2 v 0 H 58.995109 v 0 c 1.011732,0.02205 1.994216,-0.972534 1.999798,-2 V 21.011719 21 17 c 0.05936,-0.589244 -0.407896,-1.006383 -0.999899,-1 v -4 c 0,-0.003 -0.002,0.004 -0.002,0 h 0.002 v 0 c -0.0061,-1.000671 -0.953819,-1.995969 -1.999798,-2 H 31.997836 L 27.99824,6 H 8.0002595 C 5.9630216,5.99492 4.0363539,7.9703236 4.0006635,10 Z"
     class="ColorScheme-Accent"
     id="path1" />
  <path
     style="fill-opacity:0.33"
     d="m 4.0302775,10 -0.029614,1 v 9 H 21.998846 l 3.999596,-4 h 33.996566 v -4 c 0,-0.003 -0.002,0.004 -0.002,0 h 0.002 C 59.988808,10.988725 58.990992,9.9943186 57.99521,10 H 31.997836 L 27.99824,6 H 8.0002595 C 5.9928069,6.00259 3.994256,8.0072001 4.0302775,10 Z"
     id="path2" />
  <path
     style="fill:#ffffff;fill-opacity:0.2"
     d="m 27.99824,6 2.999697,5 h 1.999798 24.997475 c 1.212814,-0.06389 2.005543,1.005906 1.999798,2 v -1 c 6e-4,-0.992592 -0.988601,-1.993446 -1.999798,-2 H 32.997735 31.997836 Z m -1.999798,10 -3.999596,4 H 3.0007645 v 1 H 22.998745 Z"
     id="path3" />
  <path
     style="fill-opacity:0.2"
     d="m 25.998442,16 -5.999394,3 H 4.0006635 v 1 H 21.998846 Z M 3.0007645,56 c 0.00641,1.008598 0.9937008,2.001463 1.999798,2 v 0 H 58.995109 v 0 0 c 1.002828,0.0016 2.001139,-0.999662 1.999798,-2 z"
     class="ColorScheme-Text"
     id="path4" />
  <path
     style="color:#232629;fill:#e5e5e5;fill-opacity:1;stroke:none;stroke-width:1"
     d="m 39.914714,27 -0.297372,1.012718 c -0.609024,-0.05061 -1.222565,0.01631 -1.806691,0.19583 l -0.506844,-0.925066 -1.681377,0.915738 0.506842,0.925057 c -0.468254,0.393422 -0.855464,0.871405 -1.14274,1.409969 l -1.011819,-0.29467 -0.538639,1.831465 1.015563,0.296542 c -0.05075,0.607312 0.01445,1.221003 0.194506,1.80349 l -0.927657,0.505429 0.918305,1.676666 0.927661,-0.507291 c 0.394519,0.466949 0.875719,0.854934 1.415795,1.141404 l -0.297373,1.008989 1.838486,0.537127 0.297374,-1.012708 c 0.609019,0.05061 1.22256,-0.01635 1.806689,-0.195831 l 0.508715,0.925057 1.679507,-0.915738 -0.506847,-0.925058 c 0.46826,-0.393418 0.855469,-0.871405 1.142746,-1.409968 L 44.461357,35.293829 45,33.462362 43.984437,33.165817 c 0.05075,-0.607316 -0.01444,-1.221003 -0.194504,-1.803493 l 0.927655,-0.50542 -0.918309,-1.676672 -0.927657,0.507289 c -0.394524,-0.466947 -0.875719,-0.854935 -1.415795,-1.141406 l 0.297374,-1.008985 z m -0.946356,1.956425 c 0.190043,-0.01231 0.381814,-0.01038 0.572302,0.0059 0.253981,0.0213 0.507338,0.06728 0.755595,0.13988 0.955664,0.279785 1.765268,0.919702 2.255553,1.784843 0.509436,0.897605 0.633365,1.963989 0.342258,2.954219 -0.280572,0.952993 -0.922285,1.760331 -1.789856,2.24924 -0.900126,0.508004 -1.969502,0.631591 -2.962514,0.341301 -0.955672,-0.279785 -1.767143,-0.919702 -2.257429,-1.784843 -0.509434,-0.897606 -0.633365,-1.963991 -0.342263,-2.954222 0.280574,-0.95299 0.922289,-1.760327 1.789857,-2.249238 0.50632,-0.285753 1.066345,-0.44974 1.636497,-0.486772 z m -12.76465,2.7901 -1.905808,0.186501 0.102862,1.050015 c -0.584126,0.179522 -1.127865,0.468457 -1.602825,0.852326 l -0.819182,-0.66955 -1.215685,1.475248 0.817313,0.669547 c -0.287271,0.539519 -0.466041,1.129035 -0.531159,1.736353 L 20,37.149546 l 0.187025,1.900469 1.052966,-0.102578 c 0.180025,0.582493 0.46977,1.124709 0.854718,1.598338 l -0.671423,0.816889 1.479385,1.212278 0.671431,-0.815025 c 0.54103,0.286469 1.132208,0.464739 1.741226,0.529674 l 0.102867,1.046285 1.905809,-0.1865 -0.102863,-1.050022 c 0.584127,-0.179522 1.127865,-0.468452 1.602825,-0.852319 l 0.819182,0.669544 1.215684,-1.475244 -0.817313,-0.669551 c 0.287273,-0.539513 0.466043,-1.129035 0.53116,-1.736348 l 1.049224,-0.10258 -0.187024,-1.900469 -1.052965,0.102571 c -0.180025,-0.582487 -0.469773,-1.124703 -0.854719,-1.598335 l 0.671426,-0.816885 -1.479388,-1.212279 -0.67143,0.815019 C 27.506771,33.03601 26.915597,32.857745 26.306576,32.792811 Z m -0.02616,1.991861 c 0.733539,0.07041 1.437171,0.352088 2.021773,0.816888 0.809154,0.643599 1.322731,1.585443 1.423276,2.612919 0.09769,0.989274 -0.195839,1.977374 -0.817311,2.754665 -0.645409,0.806887 -1.59177,1.319026 -2.622128,1.419289 -0.992056,0.09742 -1.981058,-0.195291 -2.76053,-0.81502 -0.809156,-0.643604 -1.322732,-1.587313 -1.423281,-2.614787 -0.09769,-0.989275 0.195843,-1.975507 0.817314,-2.752797 0.645406,-0.806887 1.589897,-1.319026 2.620258,-1.419295 0.248015,-0.02441 0.496114,-0.02532 0.740629,-0.002 z m 8.251663,3.802811 v 1.055613 c -0.599445,0.122229 -1.169113,0.357669 -1.679509,0.693795 l -0.748111,-0.746015 -1.354078,1.35029 0.748111,0.746015 c -0.338028,0.50896 -0.575959,1.077035 -0.699488,1.674803 h -1.054829 v 1.9098 h 1.05857 c 0.122574,0.597768 0.358681,1.165845 0.695747,1.674805 l -0.748111,0.746015 1.354078,1.350292 0.748111,-0.746015 c 0.510396,0.337077 1.080064,0.574339 1.679509,0.697521 V 49 h 1.915164 v -1.055615 c 0.599446,-0.122222 1.169118,-0.357667 1.679514,-0.69379 L 38.772,47.99661 40.126077,46.646318 39.377966,45.900303 c 0.338029,-0.50896 0.575953,-1.077037 0.699483,-1.674805 h 1.054837 v -1.9098 H 40.0737 C 39.951129,41.71793 39.715024,41.149855 39.377955,40.640895 l 0.748111,-0.746015 -1.354078,-1.35029 -0.74811,0.746015 C 37.51348,38.953529 36.943808,38.716261 36.344362,38.59308 v -1.051883 z m 0.957584,1.909801 c 0.996842,0 1.953572,0.387558 2.668886,1.079858 0.742129,0.719044 1.161441,1.707501 1.161441,2.739748 0,0.994044 -0.388638,1.948099 -1.082891,2.661404 -0.721058,0.740048 -1.712289,1.158193 -2.747436,1.158193 -0.996845,0 -1.953572,-0.387557 -2.668889,-1.07986 -0.742125,-0.719035 -1.161438,-1.707491 -1.161438,-2.739737 0,-0.994056 0.38864,-1.948101 1.082886,-2.661414 0.721062,-0.740047 1.712295,-1.158192 2.747441,-1.158192 z"
     class="ColorScheme-Text"
     id="path12-6" />
</svg>
