<?xml version="1.0" encoding="UTF-8" standalone="no"?>
<svg
   viewBox="0 0 64 64"
   version="1.1"
   id="svg4"
   sodipodi:docname="folder-benchmark.svg"
   inkscape:version="1.4.2 (unknown)"
   xmlns:inkscape="http://www.inkscape.org/namespaces/inkscape"
   xmlns:sodipodi="http://sodipodi.sourceforge.net/DTD/sodipodi-0.dtd"
   xmlns="http://www.w3.org/2000/svg"
   xmlns:svg="http://www.w3.org/2000/svg">
  <sodipodi:namedview
     id="namedview4"
     pagecolor="#ffffff"
     bordercolor="#000000"
     borderopacity="0.25"
     inkscape:showpageshadow="2"
     inkscape:pageopacity="0.0"
     inkscape:pagecheckerboard="0"
     inkscape:deskcolor="#d1d1d1"
     inkscape:zoom="11.890625"
     inkscape:cx="31.95795"
     inkscape:cy="32"
     inkscape:current-layer="svg4" />
  <defs
     id="defs3051">
    <style
       type="text/css"
       id="current-color-scheme">
      .ColorScheme-Text {
      color:#232629;
      }
      .ColorScheme-Accent {
      color:#3daee9;
      }
    </style>
  </defs>
  <path
     style="fill:currentColor"
     d="m 4.0006635,10 v 1 9 0 c -0.5203637,0.02153 -1.0229638,0.505476 -0.999899,1 h 0.00195 c -4.69e-5,0.004 -0.00195,0.008 -0.00195,0.01172 V 56 c 0.00871,0.999392 0.9801138,2.005992 1.999798,2 v 0 H 58.995109 v 0 c 1.011732,0.02205 1.994216,-0.972534 1.999798,-2 V 21.011719 21 17 c 0.05936,-0.589244 -0.407896,-1.006383 -0.999899,-1 v -4 c 0,-0.003 -0.002,0.004 -0.002,0 h 0.002 v 0 c -0.0061,-1.000671 -0.953819,-1.995969 -1.999798,-2 H 31.997836 L 27.99824,6 H 8.0002595 C 5.9630216,5.99492 4.0363539,7.9703236 4.0006635,10 Z"
     class="ColorScheme-Accent"
     id="path1" />
  <path
     style="fill-opacity:0.33"
     d="m 4.0302775,10 -0.029614,1 v 9 H 21.998846 l 3.999596,-4 h 33.996566 v -4 c 0,-0.003 -0.002,0.004 -0.002,0 h 0.002 C 59.988808,10.988725 58.990992,9.9943186 57.99521,10 H 31.997836 L 27.99824,6 H 8.0002595 C 5.9928069,6.00259 3.994256,8.0072001 4.0302775,10 Z"
     id="path2" />
  <path
     style="fill:#ffffff;fill-opacity:0.2"
     d="m 27.99824,6 2.999697,5 h 1.999798 24.997475 c 1.212814,-0.06389 2.005543,1.005906 1.999798,2 v -1 c 6e-4,-0.992592 -0.988601,-1.993446 -1.999798,-2 H 32.997735 31.997836 Z m -1.999798,10 -3.999596,4 H 3.0007645 v 1 H 22.998745 Z"
     id="path3" />
  <path
     style="fill-opacity:0.2"
     d="m 25.998442,16 -5.999394,3 H 4.0006635 v 1 H 21.998846 Z M 3.0007645,56 c 0.00641,1.008598 0.9937008,2.001463 1.999798,2 v 0 H 58.995109 v 0 0 c 1.002828,0.0016 2.001139,-0.999662 1.999798,-2 z"
     class="ColorScheme-Text"
     id="path4" />
  <path
     d="m 32,41 a 3,3 0 0 1 -3,-3 c 0,-1.12 0.61,-2.1 1.5,-2.61 l 9.71,-5.62 -5.53,9.58 C 34.18,40.33 33.17,41 32,41 m 0,-13 c 1.81,0 3.5,0.5 4.97,1.32 l -2.1,1.21 C 34,30.19 33,30 32,30 a 8,8 0 0 0 -8,8 c 0,2.21 0.89,4.21 2.34,5.65 h 0.01 c 0.39,0.39 0.39,1.02 0,1.41 -0.39,0.39 -1.03,0.39 -1.42,0.01 v 0 C 23.12,43.26 22,40.76 22,38 A 10,10 0 0 1 32,28 m 10,10 c 0,2.76 -1.12,5.26 -2.93,7.07 v 0 c -0.39,0.38 -1.02,0.38 -1.41,-0.01 -0.39,-0.39 -0.39,-1.02 0,-1.41 v 0 C 39.11,42.2 40,40.21 40,38 40,37 39.81,36 39.46,35.1 L 40.67,33 C 41.5,34.5 42,36.18 42,38 Z"
     id="path5"
     style="fill:#e5e5e5;fill-opacity:1" />
</svg>
