<?xml version="1.0" encoding="UTF-8" standalone="no"?>
<svg
   viewBox="0 0 64 64"
   version="1.1"
   id="svg4"
   sodipodi:docname="folder-paw.svg"
   inkscape:version="1.4.2 (unknown)"
   xmlns:inkscape="http://www.inkscape.org/namespaces/inkscape"
   xmlns:sodipodi="http://sodipodi.sourceforge.net/DTD/sodipodi-0.dtd"
   xmlns="http://www.w3.org/2000/svg"
   xmlns:svg="http://www.w3.org/2000/svg">
  <sodipodi:namedview
     id="namedview4"
     pagecolor="#ffffff"
     bordercolor="#000000"
     borderopacity="0.25"
     inkscape:showpageshadow="2"
     inkscape:pageopacity="0.0"
     inkscape:pagecheckerboard="0"
     inkscape:deskcolor="#d1d1d1"
     inkscape:zoom="11.890625"
     inkscape:cx="31.95795"
     inkscape:cy="32"
     inkscape:current-layer="svg4" />
  <defs
     id="defs3051">
    <style
       type="text/css"
       id="current-color-scheme">
      .ColorScheme-Text {
      color:#232629;
      }
      .ColorScheme-Accent {
      color:#3daee9;
      }
    </style>
  </defs>
  <path
     style="fill:currentColor"
     d="m 4.0006635,10 v 1 9 0 c -0.5203637,0.02153 -1.0229638,0.505476 -0.999899,1 h 0.00195 c -4.69e-5,0.004 -0.00195,0.008 -0.00195,0.01172 V 56 c 0.00871,0.999392 0.9801138,2.005992 1.999798,2 v 0 H 58.995109 v 0 c 1.011732,0.02205 1.994216,-0.972534 1.999798,-2 V 21.011719 21 17 c 0.05936,-0.589244 -0.407896,-1.006383 -0.999899,-1 v -4 c 0,-0.003 -0.002,0.004 -0.002,0 h 0.002 v 0 c -0.0061,-1.000671 -0.953819,-1.995969 -1.999798,-2 H 31.997836 L 27.99824,6 H 8.0002595 C 5.9630216,5.99492 4.0363539,7.9703236 4.0006635,10 Z"
     class="ColorScheme-Accent"
     id="path1" />
  <path
     style="fill-opacity:0.33"
     d="m 4.0302775,10 -0.029614,1 v 9 H 21.998846 l 3.999596,-4 h 33.996566 v -4 c 0,-0.003 -0.002,0.004 -0.002,0 h 0.002 C 59.988808,10.988725 58.990992,9.9943186 57.99521,10 H 31.997836 L 27.99824,6 H 8.0002595 C 5.9928069,6.00259 3.994256,8.0072001 4.0302775,10 Z"
     id="path2" />
  <path
     style="fill:#ffffff;fill-opacity:0.2"
     d="m 27.99824,6 2.999697,5 h 1.999798 24.997475 c 1.212814,-0.06389 2.005543,1.005906 1.999798,2 v -1 c 6e-4,-0.992592 -0.988601,-1.993446 -1.999798,-2 H 32.997735 31.997836 Z m -1.999798,10 -3.999596,4 H 3.0007645 v 1 H 22.998745 Z"
     id="path3" />
  <path
     style="fill-opacity:0.2"
     d="m 25.998442,16 -5.999394,3 H 4.0006635 v 1 H 21.998846 Z M 3.0007645,56 c 0.00641,1.008598 0.9937008,2.001463 1.999798,2 v 0 H 58.995109 v 0 0 c 1.002828,0.0016 2.001139,-0.999662 1.999798,-2 z"
     class="ColorScheme-Text"
     id="path4" />
  <path
     d="m 28.523997,27.515865 c 1.20457,-0.179292 2.480599,1.181218 2.848095,3.058514 0.367497,1.866745 -0.296038,3.533109 -1.50061,3.722949 -1.194362,0.189837 -2.480599,-1.170674 -2.858303,-3.047968 -0.377704,-1.866748 0.306248,-3.533112 1.510818,-3.733495 m 7.298882,0 c 1.214779,0.200383 1.888521,1.866747 1.531233,3.733495 -0.387913,1.877294 -1.663941,3.237805 -2.86851,3.047968 -1.21478,-0.18984 -1.878315,-1.856204 -1.50061,-3.722949 0.367495,-1.877296 1.643524,-3.237806 2.837887,-3.058514 M 23.062597,32.3673 c 1.163737,-0.516784 2.746012,0.421863 3.572878,2.056586 0.775825,1.666362 0.510412,3.417097 -0.643118,3.933879 -1.15353,0.516785 -2.725596,-0.411313 -3.532047,-2.067131 -0.806448,-1.655816 -0.520619,-3.417099 0.602287,-3.923334 m 18.374805,0 c 1.122905,0.506235 1.408736,2.267518 0.602287,3.923334 -0.80645,1.655818 -2.378519,2.583916 -3.532047,2.067131 -1.15353,-0.516782 -1.418944,-2.267517 -0.643118,-3.933879 0.826865,-1.634723 2.409139,-2.57337 3.572878,-2.056586 m -1.704774,11.369231 c 0.04085,0.991382 -0.694159,2.088228 -1.572065,2.499546 -1.827273,0.86482 -3.991418,-0.928103 -6.022855,-0.928103 -2.031437,0 -4.215996,1.86675 -6.012645,0.928103 -1.020821,-0.516784 -1.725189,-1.887841 -1.592482,-3.026874 0.183747,-1.571444 2.01102,-2.415171 3.093093,-3.564752 1.439358,-1.487069 2.460182,-4.281918 4.512034,-4.281918 2.041646,0 3.123718,2.752663 4.501828,4.281918 1.133113,1.286686 3.021634,2.372987 3.093092,4.09208 z"
     id="path5"
     style="fill:#e5e5e5;fill-opacity:1;stroke-width:1" />
</svg>
