<?xml version="1.0" encoding="UTF-8" standalone="no"?>
<svg
   viewBox="0 0 64 64"
   version="1.1"
   id="svg4"
   sodipodi:docname="folder-keys.svg"
   inkscape:version="1.4.2 (unknown)"
   xmlns:inkscape="http://www.inkscape.org/namespaces/inkscape"
   xmlns:sodipodi="http://sodipodi.sourceforge.net/DTD/sodipodi-0.dtd"
   xmlns="http://www.w3.org/2000/svg"
   xmlns:svg="http://www.w3.org/2000/svg">
  <sodipodi:namedview
     id="namedview4"
     pagecolor="#ffffff"
     bordercolor="#000000"
     borderopacity="0.25"
     inkscape:showpageshadow="2"
     inkscape:pageopacity="0.0"
     inkscape:pagecheckerboard="0"
     inkscape:deskcolor="#d1d1d1"
     inkscape:zoom="11.890625"
     inkscape:cx="31.95795"
     inkscape:cy="32"
     inkscape:current-layer="svg4" />
  <defs
     id="defs3051">
    <style
       type="text/css"
       id="current-color-scheme">
      .ColorScheme-Text {
      color:#232629;
      }
      .ColorScheme-Accent {
      color:#3daee9;
      }
    </style>
  </defs>
  <path
     style="fill:currentColor"
     d="m 4.0006635,10 v 1 9 0 c -0.5203637,0.02153 -1.0229638,0.505476 -0.999899,1 h 0.00195 c -4.69e-5,0.004 -0.00195,0.008 -0.00195,0.01172 V 56 c 0.00871,0.999392 0.9801138,2.005992 1.999798,2 v 0 H 58.995109 v 0 c 1.011732,0.02205 1.994216,-0.972534 1.999798,-2 V 21.011719 21 17 c 0.05936,-0.589244 -0.407896,-1.006383 -0.999899,-1 v -4 c 0,-0.003 -0.002,0.004 -0.002,0 h 0.002 v 0 c -0.0061,-1.000671 -0.953819,-1.995969 -1.999798,-2 H 31.997836 L 27.99824,6 H 8.0002595 C 5.9630216,5.99492 4.0363539,7.9703236 4.0006635,10 Z"
     class="ColorScheme-Accent"
     id="path1" />
  <path
     style="fill-opacity:0.33"
     d="m 4.0302775,10 -0.029614,1 v 9 H 21.998846 l 3.999596,-4 h 33.996566 v -4 c 0,-0.003 -0.002,0.004 -0.002,0 h 0.002 C 59.988808,10.988725 58.990992,9.9943186 57.99521,10 H 31.997836 L 27.99824,6 H 8.0002595 C 5.9928069,6.00259 3.994256,8.0072001 4.0302775,10 Z"
     id="path2" />
  <path
     style="fill:#ffffff;fill-opacity:0.2"
     d="m 27.99824,6 2.999697,5 h 1.999798 24.997475 c 1.212814,-0.06389 2.005543,1.005906 1.999798,2 v -1 c 6e-4,-0.992592 -0.988601,-1.993446 -1.999798,-2 H 32.997735 31.997836 Z m -1.999798,10 -3.999596,4 H 3.0007645 v 1 H 22.998745 Z"
     id="path3" />
  <path
     style="fill-opacity:0.2"
     d="m 25.998442,16 -5.999394,3 H 4.0006635 v 1 H 21.998846 Z M 3.0007645,56 c 0.00641,1.008598 0.9937008,2.001463 1.999798,2 v 0 H 58.995109 v 0 0 c 1.002828,0.0016 2.001139,-0.999662 1.999798,-2 z"
     class="ColorScheme-Text"
     id="path4" />
  <path
     d="m 32.42601,38.821816 c -0.374009,0.36 -0.803006,0.676368 -1.276003,0.905455 v 7.090912 L 28.950004,49 26.749999,46.818183 28.950004,44.95273 27.300009,43.54545 28.950004,42.138183 26.749999,40.272731 v -0.54546 c -1.649993,-0.79636 -2.749996,-2.443638 -2.749996,-4.363637 0,-2.727267 2.199999,-4.909084 4.950001,-4.909084 0.04404,0 0.08805,0 0.121,0 -0.02202,0.07633 -0.07697,0.1309 -0.121,0.196363 -0.296994,0.665453 -0.461996,1.363638 -0.516996,2.07272 -0.660005,0.218183 -1.132999,0.829099 -1.132999,1.549099 0,0.905452 0.736992,1.63636 1.649995,1.63636 0.03292,0 0.07697,0 0.110001,0 0.704003,1.363639 1.914005,2.4 3.366005,2.912724 m 3.673995,-8.367266 c 0,-0.687283 -0.109997,-1.363637 -0.307992,-1.98546 1.473997,0.414543 2.738995,1.494543 3.310997,3.032726 0.660001,1.810916 0.176001,3.741817 -1.078001,5.050915 L 40.500003,43.196366 39.15801,46 36.342006,44.69091 37.750012,42.192731 35.726007,41.429092 36.793002,39.552731 34.076011,38.538184 33.900008,38.036366 C 32.096006,37.84 30.468011,36.672731 29.797004,34.861816 28.862003,32.32 30.193003,29.49455 32.756003,28.567267 c 0.198003,-0.06551 0.406998,-0.109083 0.594007,-0.152717 -0.726,-1.37455 -2.167009,-2.323637 -3.85,-2.323637 -2.43101,0 -4.400004,1.95272 -4.400004,4.363637 0,0.09818 0,0.18545 0.03292,0.283633 -0.363,0.294549 -0.692995,0.610907 -0.968001,0.970907 C 24.065995,31.30545 24,30.890913 24,30.45455 24,27.443633 26.463998,25 29.500008,25 c 3.035989,0 5.499996,2.443633 5.499996,5.45455 0,1.26545 -0.439996,2.410899 -1.165996,3.338182 2.353993,-0.196365 2.265995,-3.338182 2.265995,-3.338182 m -3.508999,2.2909 c 0.06605,0.185462 0.164996,0.338183 0.275003,0.479999 0.615993,-0.72 1.000991,-1.636358 1.033998,-2.650899 -0.121,0.02184 -0.220002,0.04367 -0.329999,0.07633 -0.858003,0.316358 -1.320004,1.254536 -0.979002,2.094537 z"
     id="path5"
     style="fill:#e5e5e5;fill-opacity:1;stroke-width:1.33333" />
</svg>
