<?xml version="1.0" encoding="UTF-8" standalone="no"?>
<svg
   viewBox="0 0 64 64"
   version="1.1"
   id="svg4"
   sodipodi:docname="folder-wireless-router.svg"
   inkscape:version="1.4.2 (unknown)"
   xmlns:inkscape="http://www.inkscape.org/namespaces/inkscape"
   xmlns:sodipodi="http://sodipodi.sourceforge.net/DTD/sodipodi-0.dtd"
   xmlns="http://www.w3.org/2000/svg"
   xmlns:svg="http://www.w3.org/2000/svg">
  <sodipodi:namedview
     id="namedview4"
     pagecolor="#ffffff"
     bordercolor="#000000"
     borderopacity="0.25"
     inkscape:showpageshadow="2"
     inkscape:pageopacity="0.0"
     inkscape:pagecheckerboard="0"
     inkscape:deskcolor="#d1d1d1"
     inkscape:zoom="11.890625"
     inkscape:cx="32"
     inkscape:cy="32"
     inkscape:current-layer="svg4" />
  <defs
     id="defs3051">
    <style
       type="text/css"
       id="current-color-scheme">
      .ColorScheme-Text {
      color:#232629;
      }
      .ColorScheme-Accent {
      color:#3daee9;
      }
    </style>
  </defs>
  <path
     style="fill:currentColor"
     d="m 4.0006635,10 v 1 9 0 c -0.5203637,0.02153 -1.0229638,0.505476 -0.999899,1 h 0.00195 c -4.69e-5,0.004 -0.00195,0.008 -0.00195,0.01172 V 56 c 0.00871,0.999392 0.9801138,2.005992 1.999798,2 v 0 H 58.995109 v 0 c 1.011732,0.02205 1.994216,-0.972534 1.999798,-2 V 21.011719 21 17 c 0.05936,-0.589244 -0.407896,-1.006383 -0.999899,-1 v -4 c 0,-0.003 -0.002,0.004 -0.002,0 h 0.002 v 0 c -0.0061,-1.000671 -0.953819,-1.995969 -1.999798,-2 H 31.997836 L 27.99824,6 H 8.0002595 C 5.9630216,5.99492 4.0363539,7.9703236 4.0006635,10 Z"
     class="ColorScheme-Accent"
     id="path1" />
  <path
     style="fill-opacity:0.33"
     d="m 4.0302775,10 -0.029614,1 v 9 H 21.998846 l 3.999596,-4 h 33.996566 v -4 c 0,-0.003 -0.002,0.004 -0.002,0 h 0.002 C 59.988808,10.988725 58.990992,9.9943186 57.99521,10 H 31.997836 L 27.99824,6 H 8.0002595 C 5.9928069,6.00259 3.994256,8.0072001 4.0302775,10 Z"
     id="path2" />
  <path
     style="fill:#ffffff;fill-opacity:0.2"
     d="m 27.99824,6 2.999697,5 h 1.999798 24.997475 c 1.212814,-0.06389 2.005543,1.005906 1.999798,2 v -1 c 6e-4,-0.992592 -0.988601,-1.993446 -1.999798,-2 H 32.997735 31.997836 Z m -1.999798,10 -3.999596,4 H 3.0007645 v 1 H 22.998745 Z"
     id="path3" />
  <path
     style="fill-opacity:0.2"
     d="m 25.998442,16 -5.999394,3 H 4.0006635 v 1 H 21.998846 Z M 3.0007645,56 c 0.00641,1.008598 0.9937008,2.001463 1.999798,2 v 0 H 58.995109 v 0 0 c 1.002828,0.0016 2.001139,-0.999662 1.999798,-2 z"
     class="ColorScheme-Text"
     id="path4" />
  <path
     d="m 40.999999,28.6 -0.799998,0.8 C 39,28.299999 37.5,27.700001 36,27.700001 c -1.5,0 -3,0.599998 -4.2,1.699999 L 31,28.6 c 1.4,-1.4 3.2,-2.1 5,-2.1 1.8,0 3.6,0.7 4.999999,2.1 M 36,28.800001 c 1.200001,0 2.4,0.499999 3.299999,1.399999 L 38.5,31 c -0.7,-0.699999 -1.6,-1 -2.5,-1 -0.9,0 -1.8,0.300001 -2.5,1 l -0.8,-0.8 c 0.9,-0.9 2.1,-1.399999 3.3,-1.399999 M 37,35.5 h 2 c 0.53,0 1.04,0.21 1.41,0.59 0.38,0.37 0.589999,0.88 0.589999,1.41 v 2 c 0,0.529999 -0.209999,1.04 -0.589999,1.410001 C 40.04,41.290001 39.53,41.5 39,41.5 h -6 v 2 h 1 c 0.55,0 1,0.449999 1,1 h 7 v 2 h -7 c 0,0.55 -0.45,1 -1,1 h -4 c -0.55,0 -1,-0.45 -1,-1 h -7 v -2 h 7 c 0,-0.550001 0.45,-1 1,-1 h 1 v -2 h -6 c -0.53,0 -1.04,-0.209999 -1.41,-0.589999 C 23.21,40.54 23,40.029999 23,39.5 v -2 c 0,-0.53 0.21,-1.04 0.59,-1.41 0.37,-0.38 0.88,-0.59 1.41,-0.59 h 10 v -4 h 2 v 4 m -12,4 h 2 v -2 h -2 v 2 m 3.5,0 h 2 v -2 h -2 v 2 m 3.5,0 h 2 v -2 h -2 z"
     id="path5"
     style="fill:#e5e5e5;fill-opacity:1;stroke-width:0.999992" />
</svg>
