<?xml version="1.0" encoding="UTF-8" standalone="no"?>
<svg
   viewBox="0 0 64 64"
   version="1.1"
   id="svg4"
   sodipodi:docname="folder-fitbit.svg"
   inkscape:version="1.4.2 (unknown)"
   xmlns:inkscape="http://www.inkscape.org/namespaces/inkscape"
   xmlns:sodipodi="http://sodipodi.sourceforge.net/DTD/sodipodi-0.dtd"
   xmlns="http://www.w3.org/2000/svg"
   xmlns:svg="http://www.w3.org/2000/svg">
  <sodipodi:namedview
     id="namedview4"
     pagecolor="#ffffff"
     bordercolor="#000000"
     borderopacity="0.25"
     inkscape:showpageshadow="2"
     inkscape:pageopacity="0.0"
     inkscape:pagecheckerboard="0"
     inkscape:deskcolor="#d1d1d1"
     inkscape:zoom="11.890625"
     inkscape:cx="32"
     inkscape:cy="32"
     inkscape:current-layer="svg4" />
  <defs
     id="defs3051">
    <style
       type="text/css"
       id="current-color-scheme">
      .ColorScheme-Text {
      color:#232629;
      }
      .ColorScheme-Accent {
      color:#3daee9;
      }
    </style>
  </defs>
  <path
     style="fill:currentColor"
     d="m 4.0006635,10 v 1 9 0 c -0.5203637,0.02153 -1.0229638,0.505476 -0.999899,1 h 0.00195 c -4.69e-5,0.004 -0.00195,0.008 -0.00195,0.01172 V 56 c 0.00871,0.999392 0.9801138,2.005992 1.999798,2 v 0 H 58.995109 v 0 c 1.011732,0.02205 1.994216,-0.972534 1.999798,-2 V 21.011719 21 17 c 0.05936,-0.589244 -0.407896,-1.006383 -0.999899,-1 v -4 c 0,-0.003 -0.002,0.004 -0.002,0 h 0.002 v 0 c -0.0061,-1.000671 -0.953819,-1.995969 -1.999798,-2 H 31.997836 L 27.99824,6 H 8.0002595 C 5.9630216,5.99492 4.0363539,7.9703236 4.0006635,10 Z"
     class="ColorScheme-Accent"
     id="path1" />
  <path
     style="fill-opacity:0.33"
     d="m 4.0302775,10 -0.029614,1 v 9 H 21.998846 l 3.999596,-4 h 33.996566 v -4 c 0,-0.003 -0.002,0.004 -0.002,0 h 0.002 C 59.988808,10.988725 58.990992,9.9943186 57.99521,10 H 31.997836 L 27.99824,6 H 8.0002595 C 5.9928069,6.00259 3.994256,8.0072001 4.0302775,10 Z"
     id="path2" />
  <path
     style="fill:#ffffff;fill-opacity:0.2"
     d="m 27.99824,6 2.999697,5 h 1.999798 24.997475 c 1.212814,-0.06389 2.005543,1.005906 1.999798,2 v -1 c 6e-4,-0.992592 -0.988601,-1.993446 -1.999798,-2 H 32.997735 31.997836 Z m -1.999798,10 -3.999596,4 H 3.0007645 v 1 H 22.998745 Z"
     id="path3" />
  <path
     style="fill-opacity:0.2"
     d="m 25.998442,16 -5.999394,3 H 4.0006635 v 1 H 21.998846 Z M 3.0007645,56 c 0.00641,1.008598 0.9937008,2.001463 1.999798,2 v 0 H 58.995109 v 0 0 c 1.002828,0.0016 2.001139,-0.999662 1.999798,-2 z"
     class="ColorScheme-Text"
     id="path4" />
  <path
     d="m 33.081667,28.492475 c 0,0.816053 -0.675,1.492475 -1.488335,1.492475 -0.81,0 -1.486665,-0.677258 -1.486665,-1.492475 C 30.106667,27.67893 30.784166,27 31.593332,27 c 0.813335,0 1.488335,0.679765 1.488335,1.492475 z m -1.488335,2.711539 c -0.876665,0 -1.552499,0.677257 -1.552499,1.5602 0,0.880435 0.675,1.559365 1.554167,1.559365 0.8775,0 1.554166,-0.678095 1.554166,-1.559365 0,-0.881271 -0.687499,-1.5602 -1.562499,-1.5602 z m 0,4.204849 c -0.876665,0 -1.620832,0.744983 -1.620832,1.626255 0,0.881271 0.745,1.626253 1.6225,1.626253 0.8775,0 1.621667,-0.744982 1.621667,-1.626253 0,-0.881272 -0.745,-1.626255 -1.621667,-1.626255 z m 0,4.270067 c -0.876665,0 -1.552499,0.677258 -1.552499,1.558529 0,0.88127 0.675,1.560201 1.554167,1.560201 0.8775,0 1.554166,-0.678094 1.554166,-1.560201 0,-0.812709 -0.687499,-1.558529 -1.562499,-1.558529 z m 0,4.340301 c -0.81,0 -1.486665,0.676422 -1.486665,1.491639 0,0.811037 0.677499,1.48913 1.486665,1.48913 0.814168,0 1.488335,-0.676421 1.488335,-1.491638 0,-0.813545 -0.675,-1.489131 -1.488335,-1.489131 z m 4.123335,-13.020067 c -0.946667,0 -1.756667,0.81689 -1.756667,1.76505 0,0.948161 0.810833,1.761706 1.756667,1.761706 0.945833,0 1.755,-0.815218 1.755,-1.761706 0,-0.948997 -0.81,-1.763378 -1.755,-1.763378 z m 0,4.205685 c -1.013335,0 -1.825,0.813545 -1.825,1.831104 0,1.016723 0.812499,1.828596 1.825,1.828596 1.012499,0 1.824166,-0.811873 1.824166,-1.830268 0,-1.016722 -0.811667,-1.829432 -1.824166,-1.829432 z m 0,4.270904 c -0.946667,0 -1.756667,0.816053 -1.756667,1.761706 0,0.948996 0.810833,1.763378 1.756667,1.763378 0.945833,0 1.755,-0.816054 1.755,-1.763378 0,-0.947325 -0.809167,-1.761706 -1.755,-1.761706 z m 4.255,-4.475754 c -1.08,0 -2.025,0.882108 -2.025,2.035119 0,1.084447 0.875833,2.03428 2.025,2.03428 C 41.1225,39.069398 42,38.17893 42,37.02592 41.931672,35.870401 41.054166,34.993312 39.971667,34.993312 Z M 27.405,31.408026 c -0.743333,0 -1.35,0.610369 -1.35,1.357024 0,0.744983 0.6075,1.354515 1.35,1.354515 0.744166,0 1.349166,-0.609532 1.349166,-1.354515 0,-0.746655 -0.605834,-1.354515 -1.349166,-1.354515 z m 0,4.203178 c -0.810834,0 -1.419167,0.609532 -1.419167,1.423914 0,0.815217 0.600834,1.423912 1.412499,1.423912 0.811668,0 1.412501,-0.610368 1.412501,-1.423912 0,-0.815218 -0.612501,-1.423914 -1.425,-1.423914 z m 0,4.270067 c -0.743333,0 -1.35,0.611204 -1.35,1.354515 0,0.748328 0.6075,1.357024 1.35,1.357024 0.744166,0 1.349166,-0.614549 1.349166,-1.367058 0,-0.752508 -0.605834,-1.354515 -1.349166,-1.354515 z m -4.1875,-4.066054 c -0.6775,0 -1.2175,0.540134 -1.2175,1.219901 0,0.677257 0.54,1.219899 1.216667,1.219899 0.675,0 1.215833,-0.541806 1.215833,-1.219899 0,-0.678095 -0.54,-1.219901 -1.215,-1.219901 z"
     id="path5"
     style="fill:#e5e5e5;fill-opacity:1;stroke-width:0.999993" />
</svg>
