<?xml version="1.0" encoding="UTF-8" standalone="no"?>
<svg
   viewBox="0 0 64 64"
   version="1.1"
   id="svg4"
   sodipodi:docname="folder-design.svg"
   inkscape:version="1.4.2 (unknown)"
   xmlns:inkscape="http://www.inkscape.org/namespaces/inkscape"
   xmlns:sodipodi="http://sodipodi.sourceforge.net/DTD/sodipodi-0.dtd"
   xmlns="http://www.w3.org/2000/svg"
   xmlns:svg="http://www.w3.org/2000/svg">
  <sodipodi:namedview
     id="namedview4"
     pagecolor="#ffffff"
     bordercolor="#000000"
     borderopacity="0.25"
     inkscape:showpageshadow="2"
     inkscape:pageopacity="0.0"
     inkscape:pagecheckerboard="0"
     inkscape:deskcolor="#d1d1d1"
     inkscape:zoom="11.890625"
     inkscape:cx="32"
     inkscape:cy="32"
     inkscape:current-layer="svg4" />
  <defs
     id="defs3051">
    <style
       type="text/css"
       id="current-color-scheme">
      .ColorScheme-Text {
      color:#232629;
      }
      .ColorScheme-Accent {
      color:#3daee9;
      }
    </style>
  </defs>
  <path
     style="fill:currentColor"
     d="m 4.0006635,10 v 1 9 0 c -0.5203637,0.02153 -1.0229638,0.505476 -0.999899,1 h 0.00195 c -4.69e-5,0.004 -0.00195,0.008 -0.00195,0.01172 V 56 c 0.00871,0.999392 0.9801138,2.005992 1.999798,2 v 0 H 58.995109 v 0 c 1.011732,0.02205 1.994216,-0.972534 1.999798,-2 V 21.011719 21 17 c 0.05936,-0.589244 -0.407896,-1.006383 -0.999899,-1 v -4 c 0,-0.003 -0.002,0.004 -0.002,0 h 0.002 v 0 c -0.0061,-1.000671 -0.953819,-1.995969 -1.999798,-2 H 31.997836 L 27.99824,6 H 8.0002595 C 5.9630216,5.99492 4.0363539,7.9703236 4.0006635,10 Z"
     class="ColorScheme-Accent"
     id="path1" />
  <path
     style="fill-opacity:0.33"
     d="m 4.0302775,10 -0.029614,1 v 9 H 21.998846 l 3.999596,-4 h 33.996566 v -4 c 0,-0.003 -0.002,0.004 -0.002,0 h 0.002 C 59.988808,10.988725 58.990992,9.9943186 57.99521,10 H 31.997836 L 27.99824,6 H 8.0002595 C 5.9928069,6.00259 3.994256,8.0072001 4.0302775,10 Z"
     id="path2" />
  <path
     style="fill:#ffffff;fill-opacity:0.2"
     d="m 27.99824,6 2.999697,5 h 1.999798 24.997475 c 1.212814,-0.06389 2.005543,1.005906 1.999798,2 v -1 c 6e-4,-0.992592 -0.988601,-1.993446 -1.999798,-2 H 32.997735 31.997836 Z m -1.999798,10 -3.999596,4 H 3.0007645 v 1 H 22.998745 Z"
     id="path3" />
  <path
     style="fill-opacity:0.2"
     d="m 25.998442,16 -5.999394,3 H 4.0006635 v 1 H 21.998846 Z M 3.0007645,56 c 0.00641,1.008598 0.9937008,2.001463 1.999798,2 v 0 H 58.995109 v 0 0 c 1.002828,0.0016 2.001139,-0.999662 1.999798,-2 z"
     class="ColorScheme-Text"
     id="path4" />
  <path
     style="color:#232629;fill:#e5e5e5;fill-opacity:1;stroke:none;stroke-width:0.767338"
     d="m 31.974087,27 c -0.389533,0 -0.70845,0.313466 -0.70845,0.701838 v 0.641973 c -1.255242,0.321376 -2.158372,1.431347 -2.158372,2.765463 0,0.933886 0.447214,1.765014 1.145232,2.288087 0.07427,0.08755 0.120076,0.198263 0.120076,0.321739 0,0.03597 2.7e-5,0.07112 -0.0047,0.10475 l -3.102416,6.555987 h -1.283291 c -0.209409,0 -0.381237,0.168337 -0.381237,0.377114 v 0.0019 c 0,0.208779 0.171828,0.377111 0.381237,0.377111 h 0.926088 l -2.395527,5.062507 c -0.150857,0.32103 -0.07584,0.692084 0.160606,0.932295 L 23.75,49 25.20892,47.42423 c 0.387291,0.101014 0.801501,-0.083 0.977129,-0.45343 l 2.761771,-5.834699 h 2.427037 v 0.501313 c 0,0.318782 0.26038,0.576131 0.582377,0.576131 h 0.03153 c 0.321987,0 0.583875,-0.257349 0.583875,-0.576131 v -0.501386 h 2.482563 l 2.76026,5.834696 c 0.173376,0.372653 0.590576,0.554438 0.975614,0.453427 l 1.458932,1.575761 -0.920086,-1.869075 c 0.234189,-0.240208 0.309984,-0.609033 0.159121,-0.932293 l -2.395362,-5.062636 h 0.86904 c 0.211666,0 0.381248,-0.168325 0.381248,-0.377105 0,-0.20878 -0.169583,-0.376385 -0.381248,-0.378604 h -1.226233 l -3.100937,-6.556063 c -0.0048,-0.03371 -0.0047,-0.06886 -0.0047,-0.104755 0,-0.121223 0.04504,-0.234188 0.117081,-0.321738 0.698011,-0.52306 1.148224,-1.35419 1.148224,-2.288086 0,-1.352371 -0.945596,-2.476043 -2.215404,-2.780414 V 27.70208 c 0,-0.388371 -0.315158,-0.701843 -0.706949,-0.701843 z m 0.673932,2.588875 c 0.597248,0.25014 1.016143,0.83632 1.016143,1.520399 0,0.911435 -0.742875,1.650587 -1.661553,1.650587 -0.923186,0 -1.661557,-0.739152 -1.661557,-1.650587 0,-0.66192 0.394661,-1.229214 0.963612,-1.491966 0.08438,0.292665 0.345488,0.511782 0.669424,0.511782 0.332327,0 0.598878,-0.232359 0.673931,-0.540215 z m -0.658921,5.481521 h 0.01357 0.01356 c 0.09005,0 0.1696,0.04193 0.219141,0.104769 l 2.463048,5.204674 h -2.125365 v -0.609065 c 0,-0.32101 -0.261876,-0.579126 -0.583875,-0.579126 h -0.03153 c -0.321995,10e-7 -0.58237,0.260347 -0.58237,0.579126 v 0.609061 h -2.069832 l 2.463062,-5.204675 c 0.05177,-0.06504 0.130582,-0.104768 0.220642,-0.104768 z"
     class="ColorScheme-Text"
     id="path144-9" />
</svg>
