<?xml version="1.0" encoding="UTF-8" standalone="no"?>
<svg
   viewBox="0 0 64 64"
   version="1.1"
   id="svg4"
   sodipodi:docname="folder-kubernetes.svg"
   inkscape:version="1.4.2 (unknown)"
   xmlns:inkscape="http://www.inkscape.org/namespaces/inkscape"
   xmlns:sodipodi="http://sodipodi.sourceforge.net/DTD/sodipodi-0.dtd"
   xmlns="http://www.w3.org/2000/svg"
   xmlns:svg="http://www.w3.org/2000/svg">
  <sodipodi:namedview
     id="namedview4"
     pagecolor="#ffffff"
     bordercolor="#000000"
     borderopacity="0.25"
     inkscape:showpageshadow="2"
     inkscape:pageopacity="0.0"
     inkscape:pagecheckerboard="0"
     inkscape:deskcolor="#d1d1d1"
     inkscape:zoom="11.890625"
     inkscape:cx="31.95795"
     inkscape:cy="32"
     inkscape:current-layer="svg4" />
  <defs
     id="defs3051">
    <style
       type="text/css"
       id="current-color-scheme">
      .ColorScheme-Text {
      color:#232629;
      }
      .ColorScheme-Accent {
      color:#3daee9;
      }
    </style>
  </defs>
  <path
     style="fill:currentColor"
     d="m 4.0006635,10 v 1 9 0 c -0.5203637,0.02153 -1.0229638,0.505476 -0.999899,1 h 0.00195 c -4.69e-5,0.004 -0.00195,0.008 -0.00195,0.01172 V 56 c 0.00871,0.999392 0.9801138,2.005992 1.999798,2 v 0 H 58.995109 v 0 c 1.011732,0.02205 1.994216,-0.972534 1.999798,-2 V 21.011719 21 17 c 0.05936,-0.589244 -0.407896,-1.006383 -0.999899,-1 v -4 c 0,-0.003 -0.002,0.004 -0.002,0 h 0.002 v 0 c -0.0061,-1.000671 -0.953819,-1.995969 -1.999798,-2 H 31.997836 L 27.99824,6 H 8.0002595 C 5.9630216,5.99492 4.0363539,7.9703236 4.0006635,10 Z"
     class="ColorScheme-Accent"
     id="path1" />
  <path
     style="fill-opacity:0.33"
     d="m 4.0302775,10 -0.029614,1 v 9 H 21.998846 l 3.999596,-4 h 33.996566 v -4 c 0,-0.003 -0.002,0.004 -0.002,0 h 0.002 C 59.988808,10.988725 58.990992,9.9943186 57.99521,10 H 31.997836 L 27.99824,6 H 8.0002595 C 5.9928069,6.00259 3.994256,8.0072001 4.0302775,10 Z"
     id="path2" />
  <path
     style="fill:#ffffff;fill-opacity:0.2"
     d="m 27.99824,6 2.999697,5 h 1.999798 24.997475 c 1.212814,-0.06389 2.005543,1.005906 1.999798,2 v -1 c 6e-4,-0.992592 -0.988601,-1.993446 -1.999798,-2 H 32.997735 31.997836 Z m -1.999798,10 -3.999596,4 H 3.0007645 v 1 H 22.998745 Z"
     id="path3" />
  <path
     style="fill-opacity:0.2"
     d="m 25.998442,16 -5.999394,3 H 4.0006635 v 1 H 21.998846 Z M 3.0007645,56 c 0.00641,1.008598 0.9937008,2.001463 1.999798,2 v 0 H 58.995109 v 0 0 c 1.002828,0.0016 2.001139,-0.999662 1.999798,-2 z"
     class="ColorScheme-Text"
     id="path4" />
  <path
     d="m 30.503091,38.717742 0.0058,0.0083 -0.832515,2.020507 A 4.3092425,4.329896 0 0 1 27.947179,38.57197 l 2.148371,-0.365917 0.0033,0.0042 a 0.36667312,0.36843052 0 0 1 0.40334,0.507429 z m -0.694179,-1.782701 a 0.36667312,0.36843052 0 0 0 0.14417,-0.633031 l 0.0017,-0.0092 -1.634195,-1.468698 a 4.2859087,4.3064503 0 0 0 -0.608344,2.725549 l 2.095037,-0.607073 z m 0.954184,-1.657938 a 0.36667312,0.36843052 0 0 0 0.58251,-0.282184 l 0.0083,-0.0042 0.125002,-2.193836 a 4.2867421,4.3072877 0 0 0 -2.508378,1.207448 l 1.789199,1.275272 0.0033,-0.0017 z m 0.633344,2.30269 0.602511,0.292234 0.601677,-0.290558 0.150003,-0.653127 -0.416674,-0.521664 h -0.670012 l -0.416674,0.521664 0.149169,0.65229 z m 1.250022,-2.591573 a 0.36667312,0.36843052 0 0 0 0.583344,0.281347 l 0.0067,0.0025 1.778364,-1.266898 a 4.3234094,4.3441308 0 0 0 -2.49341,-1.207448 l 0.123336,2.18965 z m 9.063493,4.998932 -4.810918,6.012954 a 1.3333568,1.3397474 0 0 1 -1.040018,0.497381 l -7.717636,0.0025 A 1.3333568,1.3397474 0 0 1 27.102198,46.000944 L 22.28878,39.988828 a 1.3191899,1.3255125 0 0 1 -0.255838,-1.12204 l 1.716697,-7.498397 c 0.09,-0.393552 0.354173,-0.723464 0.719179,-0.898468 l 6.951789,-3.338483 a 1.3383569,1.3447714 0 0 1 1.154187,0 l 6.954289,3.336808 c 0.365007,0.175004 0.629178,0.505755 0.71918,0.898468 l 1.718363,7.498399 c 0.09,0.39355 -0.0042,0.80636 -0.256671,1.122037 z M 38.969074,38.26474 c -0.035,-0.0083 -0.08583,-0.02177 -0.120836,-0.02847 -0.145002,-0.02763 -0.262504,-0.02093 -0.399174,-0.03182 -0.291671,-0.03098 -0.531676,-0.0561 -0.745846,-0.123925 -0.0875,-0.03349 -0.150003,-0.138163 -0.180003,-0.180867 l -0.167503,-0.0494 a 5.3750946,5.4008566 0 0 0 -0.0875,-1.952682 5.3875948,5.4134167 0 0 0 -0.780013,-1.81117 c 0.04333,-0.03936 0.125002,-0.111367 0.147502,-0.133138 0.0067,-0.07536 8.34e-4,-0.153233 0.07833,-0.23613 0.164169,-0.154907 0.370006,-0.283021 0.619178,-0.437092 0.118335,-0.07034 0.227504,-0.114716 0.345839,-0.202637 0.02667,-0.02009 0.06333,-0.05192 0.09167,-0.07452 0.200004,-0.159932 0.245838,-0.435418 0.102502,-0.616283 -0.143336,-0.180867 -0.421674,-0.197614 -0.620844,-0.03768 -0.02833,0.02261 -0.06667,0.05192 -0.0925,0.07368 -0.111669,0.09714 -0.180836,0.192588 -0.275005,0.29307 -0.205003,0.209335 -0.375006,0.383503 -0.560843,0.509941 -0.08084,0.04689 -0.19917,0.03098 -0.252504,0.02763 l -0.158336,0.113042 a 5.4542626,5.4804039 0 0 0 -3.455061,-1.677197 l -0.01,-0.186726 c -0.05417,-0.05192 -0.119169,-0.09629 -0.135836,-0.209336 -0.01833,-0.224408 0.0125,-0.4664 0.0475,-0.757795 0.01917,-0.136487 0.05083,-0.249528 0.05667,-0.397738 8.34e-4,-0.03349 -8.33e-4,-0.08289 -8.33e-4,-0.118902 0,-0.256227 -0.18667,-0.464725 -0.416674,-0.464725 -0.229171,0 -0.415841,0.208498 -0.415841,0.464725 l 8.34e-4,0.01173 c 0,0.03434 -0.0017,0.07704 0,0.107179 0.005,0.14821 0.03667,0.261251 0.05583,0.397738 0.035,0.291395 0.065,0.533387 0.04667,0.758632 a 0.45417466,0.45635144 0 0 1 -0.135002,0.216034 l -0.01,0.176679 a 5.3534275,5.3790856 0 0 0 -3.471728,1.677197 6.9776228,7.0110654 0 0 1 -0.150002,-0.10718 c -0.075,0.01005 -0.150003,0.03349 -0.247505,-0.02429 -0.185836,-0.125602 -0.355839,-0.299768 -0.560843,-0.509104 -0.09417,-0.100481 -0.162503,-0.195938 -0.274172,-0.292232 -0.025,-0.02177 -0.06417,-0.05192 -0.0925,-0.07369 A 0.49500871,0.49738121 0 0 0 26.45469,32.24676 0.40084039,0.40276155 0 0 0 26.123017,32.394131 c -0.143336,0.180866 -0.0975,0.457189 0.102502,0.617122 l 0.0058,0.0042 0.08667,0.0695 c 0.118335,0.08792 0.22667,0.133138 0.345006,0.202637 0.249171,0.154908 0.455008,0.283022 0.619177,0.437092 0.06333,0.06867 0.075,0.189239 0.08333,0.241156 l 0.133336,0.119739 a 5.3850948,5.4109047 0 0 0 -0.850015,3.773063 l -0.173337,0.05024 c -0.04583,0.06029 -0.110835,0.154071 -0.179169,0.181704 -0.214171,0.06783 -0.455008,0.09211 -0.745847,0.123089 -0.136669,0.01173 -0.254171,0.005 -0.400007,0.03266 -0.03083,0.0058 -0.075,0.01675 -0.110835,0.02512 l -0.0033,0.0017 -0.0058,0.0017 c -0.245838,0.05945 -0.40334,0.286371 -0.352506,0.509104 0.05083,0.223571 0.290838,0.35922 0.537509,0.30563 l 0.0058,-8.36e-4 0.0083,-0.0025 0.107502,-0.02429 c 0.141669,-0.03852 0.245004,-0.09462 0.37334,-0.144021 0.275005,-0.09881 0.503342,-0.181704 0.725013,-0.214361 0.09333,-0.0075 0.19167,0.05778 0.240004,0.08457 l 0.180836,-0.03098 a 5.416762,5.4427236 0 0 0 2.400043,3.011082 l -0.075,0.18254 c 0.0275,0.07034 0.0575,0.166632 0.03667,0.236131 -0.08084,0.21101 -0.219171,0.432905 -0.376674,0.680759 -0.07583,0.113878 -0.154169,0.202637 -0.223337,0.334099 -0.01667,0.03098 -0.0375,0.07955 -0.05333,0.112205 -0.106669,0.230268 -0.02833,0.494869 0.177503,0.594513 0.20667,0.10048 0.463341,-0.0058 0.57501,-0.236131 v -0.0017 c 0.01667,-0.03266 0.03833,-0.07536 0.05167,-0.106342 0.05833,-0.13565 0.07833,-0.25204 0.120002,-0.383503 0.110002,-0.277997 0.170836,-0.569393 0.322505,-0.751096 0.04167,-0.05024 0.108336,-0.06866 0.17917,-0.08792 l 0.09417,-0.171655 a 5.3775946,5.4033685 0 0 0 3.840901,0.01005 l 0.08833,0.16077 c 0.07167,0.02344 0.150003,0.03517 0.213338,0.129789 0.113335,0.194263 0.190836,0.424532 0.285005,0.703366 0.04167,0.130626 0.06167,0.247017 0.120835,0.382666 0.01333,0.03098 0.03583,0.07536 0.05167,0.108017 0.110835,0.231106 0.368339,0.336611 0.57501,0.23613 0.205837,-0.0988 0.284171,-0.364243 0.177503,-0.594512 -0.01667,-0.03266 -0.0375,-0.08038 -0.05417,-0.112204 -0.06917,-0.130626 -0.147502,-0.218546 -0.223337,-0.333262 -0.158336,-0.247853 -0.288338,-0.453002 -0.369173,-0.664013 -0.03333,-0.108854 0.0058,-0.175842 0.03167,-0.246178 -0.015,-0.01841 -0.04917,-0.120577 -0.06917,-0.169143 a 5.4159286,5.4418862 0 0 0 2.400042,-3.032837 c 0.05334,0.0083 0.14667,0.02512 0.177503,0.03182 0.0625,-0.04187 0.120003,-0.09545 0.233338,-0.08709 0.22167,0.03266 0.450008,0.115553 0.725013,0.21436 0.128335,0.05024 0.230837,0.10718 0.37334,0.144861 0.03,0.0083 0.07333,0.0159 0.108335,0.02344 l 0.0075,0.0025 0.0058,8.38e-4 c 0.247505,0.05359 0.486676,-0.08206 0.53751,-0.305629 0.05,-0.222734 -0.106669,-0.449653 -0.352506,-0.509104 z m -3.302558,-3.439801 -1.625029,1.461998 v 0.0042 a 0.36667312,0.36843052 0 0 0 0.144169,0.633867 l 0.0025,0.0083 2.105037,0.609585 a 4.3325762,4.3533415 0 0 0 -0.09,-1.40171 4.3400764,4.3608777 0 0 0 -0.536676,-1.317139 z m -3.344226,4.458847 a 0.36417307,0.36591849 0 0 0 -0.336673,-0.194263 0.36667312,0.36843052 0 0 0 -0.310005,0.195099 h -0.0017 l -1.056652,1.91919 a 4.3034091,4.3240346 0 0 0 2.771715,0.0025 l -1.058352,-1.922537 z m 1.573361,-1.082684 a 0.36667312,0.36843052 0 0 0 -0.225004,0.03015 0.36667312,0.36843052 0 0 0 -0.178336,0.478959 l -0.0025,0.0033 0.841681,2.04144 a 4.2917422,4.3123118 0 0 0 1.734197,-2.189649 l -2.166705,-0.368433 z"
     id="path5"
     style="fill:#e5e5e5;fill-opacity:1;stroke-width:1" />
</svg>
