<?xml version="1.0" encoding="UTF-8" standalone="no"?>
<svg
   viewBox="0 0 64 64"
   version="1.1"
   id="svg4"
   sodipodi:docname="folder-paint.svg"
   inkscape:version="1.4.2 (unknown)"
   xmlns:inkscape="http://www.inkscape.org/namespaces/inkscape"
   xmlns:sodipodi="http://sodipodi.sourceforge.net/DTD/sodipodi-0.dtd"
   xmlns="http://www.w3.org/2000/svg"
   xmlns:svg="http://www.w3.org/2000/svg">
  <sodipodi:namedview
     id="namedview4"
     pagecolor="#ffffff"
     bordercolor="#000000"
     borderopacity="0.25"
     inkscape:showpageshadow="2"
     inkscape:pageopacity="0.0"
     inkscape:pagecheckerboard="0"
     inkscape:deskcolor="#d1d1d1"
     inkscape:zoom="11.890625"
     inkscape:cx="31.95795"
     inkscape:cy="32"
     inkscape:current-layer="svg4" />
  <defs
     id="defs3051">
    <style
       type="text/css"
       id="current-color-scheme">
      .ColorScheme-Text {
      color:#232629;
      }
      .ColorScheme-Accent {
      color:#3daee9;
      }
    </style>
  </defs>
  <path
     style="fill:currentColor"
     d="m 4.0006635,10 v 1 9 0 c -0.5203637,0.02153 -1.0229638,0.505476 -0.999899,1 h 0.00195 c -4.69e-5,0.004 -0.00195,0.008 -0.00195,0.01172 V 56 c 0.00871,0.999392 0.9801138,2.005992 1.999798,2 v 0 H 58.995109 v 0 c 1.011732,0.02205 1.994216,-0.972534 1.999798,-2 V 21.011719 21 17 c 0.05936,-0.589244 -0.407896,-1.006383 -0.999899,-1 v -4 c 0,-0.003 -0.002,0.004 -0.002,0 h 0.002 v 0 c -0.0061,-1.000671 -0.953819,-1.995969 -1.999798,-2 H 31.997836 L 27.99824,6 H 8.0002595 C 5.9630216,5.99492 4.0363539,7.9703236 4.0006635,10 Z"
     class="ColorScheme-Accent"
     id="path1" />
  <path
     style="fill-opacity:0.33"
     d="m 4.0302775,10 -0.029614,1 v 9 H 21.998846 l 3.999596,-4 h 33.996566 v -4 c 0,-0.003 -0.002,0.004 -0.002,0 h 0.002 C 59.988808,10.988725 58.990992,9.9943186 57.99521,10 H 31.997836 L 27.99824,6 H 8.0002595 C 5.9928069,6.00259 3.994256,8.0072001 4.0302775,10 Z"
     id="path2" />
  <path
     style="fill:#ffffff;fill-opacity:0.2"
     d="m 27.99824,6 2.999697,5 h 1.999798 24.997475 c 1.212814,-0.06389 2.005543,1.005906 1.999798,2 v -1 c 6e-4,-0.992592 -0.988601,-1.993446 -1.999798,-2 H 32.997735 31.997836 Z m -1.999798,10 -3.999596,4 H 3.0007645 v 1 H 22.998745 Z"
     id="path3" />
  <path
     style="fill-opacity:0.2"
     d="m 25.998442,16 -5.999394,3 H 4.0006635 v 1 H 21.998846 Z M 3.0007645,56 c 0.00641,1.008598 0.9937008,2.001463 1.999798,2 v 0 H 58.995109 v 0 0 c 1.002828,0.0016 2.001139,-0.999662 1.999798,-2 z"
     class="ColorScheme-Text"
     id="path4" />
  <path
     style="color:#232629;fill:#e5e5e5;fill-opacity:1;stroke:none;stroke-width:1"
     d="M 45.255688,22 C 43.454867,22.199016 29.048289,37.224735 29.048289,37.224735 l -4.602101,5.074914 c -0.600273,0.199017 -1.748799,0.02188 -2.401096,0.298525 -1.600729,0.597047 -2.601187,1.272706 -3.401552,3.482782 -0.700319,1.890653 1.300594,5.134616 3.00137,4.577371 -0.800366,0 -1.800823,-1.094589 -1.300593,-1.890653 1.000456,-1.890654 4.95226,-1.475706 4.802191,-5.671961 l 5.002283,-4.676881 c 0,0 16.307444,-15.224736 15.306989,-16.219816 h -0.100045 z m -5.302421,15.224735 c -0.600273,0 -1.60073,0.995081 -3.601644,3.980326 -1.900867,3.184257 -6.90315,5.373435 -6.603015,2.288684 0.100045,-0.796064 -1.800822,-0.49754 -3.601643,-0.49754 0,5.373437 -3.07023,3.980323 -4.902238,6.269007 -0.200091,1.791148 8.203746,2.862849 12.7058,-0.199015 5.402467,-3.681798 6.502969,-8.657202 6.603014,-10.34884 0,-0.895574 -0.200092,-1.492622 -0.600274,-1.492622 z m -7.103242,3.880816 c 0,0.298526 -0.70032,0.09951 -1.000457,0.298526 -0.700319,0.398032 -1.024468,0.994302 -0.800366,1.393113 0.200092,0.398031 0.900412,0.398031 1.600732,0 0.700319,-0.398033 1.024859,-0.995081 0.800364,-1.393113 -0.100043,-0.199016 -0.300136,-0.298526 -0.600273,-0.298526 z"
     id="path12-7" />
</svg>
