<?xml version="1.0" encoding="UTF-8" standalone="no"?>
<svg
   viewBox="0 0 64 64"
   version="1.1"
   id="svg4"
   sodipodi:docname="folder-openSCAD.svg"
   inkscape:version="1.4.2 (unknown)"
   xmlns:inkscape="http://www.inkscape.org/namespaces/inkscape"
   xmlns:sodipodi="http://sodipodi.sourceforge.net/DTD/sodipodi-0.dtd"
   xmlns="http://www.w3.org/2000/svg"
   xmlns:svg="http://www.w3.org/2000/svg">
  <sodipodi:namedview
     id="namedview4"
     pagecolor="#ffffff"
     bordercolor="#000000"
     borderopacity="0.25"
     inkscape:showpageshadow="2"
     inkscape:pageopacity="0.0"
     inkscape:pagecheckerboard="0"
     inkscape:deskcolor="#d1d1d1"
     inkscape:zoom="11.890625"
     inkscape:cx="31.95795"
     inkscape:cy="32"
     inkscape:current-layer="svg4" />
  <defs
     id="defs3051">
    <style
       type="text/css"
       id="current-color-scheme">
      .ColorScheme-Text {
      color:#232629;
      }
      .ColorScheme-Accent {
      color:#3daee9;
      }
    </style>
  </defs>
  <path
     style="fill:currentColor"
     d="m 4.0006635,10 v 1 9 0 c -0.5203637,0.02153 -1.0229638,0.505476 -0.999899,1 h 0.00195 c -4.69e-5,0.004 -0.00195,0.008 -0.00195,0.01172 V 56 c 0.00871,0.999392 0.9801138,2.005992 1.999798,2 v 0 H 58.995109 v 0 c 1.011732,0.02205 1.994216,-0.972534 1.999798,-2 V 21.011719 21 17 c 0.05936,-0.589244 -0.407896,-1.006383 -0.999899,-1 v -4 c 0,-0.003 -0.002,0.004 -0.002,0 h 0.002 v 0 c -0.0061,-1.000671 -0.953819,-1.995969 -1.999798,-2 H 31.997836 L 27.99824,6 H 8.0002595 C 5.9630216,5.99492 4.0363539,7.9703236 4.0006635,10 Z"
     class="ColorScheme-Accent"
     id="path1" />
  <path
     style="fill-opacity:0.33"
     d="m 4.0302775,10 -0.029614,1 v 9 H 21.998846 l 3.999596,-4 h 33.996566 v -4 c 0,-0.003 -0.002,0.004 -0.002,0 h 0.002 C 59.988808,10.988725 58.990992,9.9943186 57.99521,10 H 31.997836 L 27.99824,6 H 8.0002595 C 5.9928069,6.00259 3.994256,8.0072001 4.0302775,10 Z"
     id="path2" />
  <path
     style="fill:#ffffff;fill-opacity:0.2"
     d="m 27.99824,6 2.999697,5 h 1.999798 24.997475 c 1.212814,-0.06389 2.005543,1.005906 1.999798,2 v -1 c 6e-4,-0.992592 -0.988601,-1.993446 -1.999798,-2 H 32.997735 31.997836 Z m -1.999798,10 -3.999596,4 H 3.0007645 v 1 H 22.998745 Z"
     id="path3" />
  <path
     style="fill-opacity:0.2"
     d="m 25.998442,16 -5.999394,3 H 4.0006635 v 1 H 21.998846 Z M 3.0007645,56 c 0.00641,1.008598 0.9937008,2.001463 1.999798,2 v 0 H 58.995109 v 0 0 c 1.002828,0.0016 2.001139,-0.999662 1.999798,-2 z"
     class="ColorScheme-Text"
     id="path4" />
  <path
     d="m 32.053826,29 c -1.072494,0.01335 -2.064988,0.236276 -2.788317,0.585264 -0.745829,0.360677 -1.188326,0.846589 -1.188326,1.358382 0,0.412441 0.312498,0.818202 0.812495,1.166356 0.201666,-0.148613 0.410831,-0.256314 0.607497,-0.352328 0.195832,-0.09686 0.46333,-0.12273 0.813328,-0.125235 0.349998,-0.0033 0.713329,0.07514 0.713329,0.07514 0.0067,8.34e-4 1.248326,0.537675 1.248326,0.537675 l 0.744995,-0.348988 h 0.0017 c 0,0 0.49333,-0.222083 1.05666,-0.215404 0.0375,0 0.075,0.0025 0.113333,0.005 0.155832,0.01085 0.295831,0.03173 0.54583,0.08934 0.249998,0.05844 0.492497,0.199542 0.647496,0.325611 0.46833,-0.338134 0.747495,-0.733876 0.747495,-1.138803 0,-0.515133 -0.417497,-1.004384 -1.136659,-1.368401 -0.718329,-0.364016 -1.723323,-0.592779 -2.834983,-0.592779 h -0.104166 z m 6.083296,0.119391 c -0.270831,-0.01671 -0.369164,0.0167 -0.579163,0.108537 -0.421664,0.229597 -0.853328,0.459193 -1.287492,0.688791 a 8.2266169,8.2421313 0 0 1 3.937476,6.729292 c 0.348331,-0.177831 0.693329,-0.356501 1.02416,-0.530994 0.964161,-0.704656 1.028328,-2.565648 0.1475,-4.336471 -0.783329,-1.573785 -2.108321,-2.66166 -3.241647,-2.659155 z m -9.012445,0.306407 a 8.0399513,8.0551137 0 0 0 -5.147469,6.812783 c 0.354164,-0.178668 0.714162,-0.353997 1.078327,-0.515133 l 0.0017,-0.0017 h 0.0017 c 0.169999,-0.07181 0.348331,-0.106868 0.53083,-0.111043 0.183332,-0.0042 0.370831,0.02421 0.559997,0.07848 0.378331,0.108537 0.763328,0.322271 1.12916,0.606138 0.733329,0.567732 1.410824,1.431017 1.844155,2.407016 0.479997,1.079525 0.699996,2.113966 0.662496,2.972244 -0.0375,0.859111 -0.343331,1.565436 -0.948327,1.893551 l -0.814162,0.389899 a 7.9949516,8.0100291 0 0 0 3.953309,1.041955 7.9949516,8.0100291 0 0 0 4.444973,-1.345024 c -0.620829,0.241287 -1.233326,0.265499 -1.738323,-0.005 -0.449997,-0.242122 -0.762495,-0.695472 -0.901661,-1.28658 -0.100832,-0.344815 -0.075,-0.596954 -0.08583,-0.957631 0.0125,-0.396577 0.1175,-0.775621 0.172499,-1.041955 0.08667,-0.362347 0.314165,-0.963473 0.64583,-1.557088 0.331664,-0.592779 0.814162,-1.177209 1.342492,-1.676478 0.529163,-0.499271 1.04416,-0.806514 1.419991,-0.903363 0.374998,-0.09686 0.61833,-0.141933 0.869162,-0.145272 0.249998,-0.0025 0.506663,0.0384 0.767495,0.175329 0.643329,0.342309 0.969161,1.081196 0.989994,1.967858 0.06167,-0.188687 0.09,-0.968483 0.107499,-1.273222 a 8.0299514,8.045095 0 0 0 -4.269141,-7.110006 c 0.372498,0.321435 0.597497,0.701316 0.597497,1.120434 0,0.515968 -0.340831,0.989358 -0.766662,1.271553 a 5.1666354,5.1763791 0 0 1 -1.248326,0.621166 6.0607967,6.0722267 0 0 1 -1.842489,0.314757 c -0.614996,0.0017 -1.04166,0.01002 -1.386658,-0.05009 a 10.281604,10.300994 0 0 1 -0.703329,-0.138567 c -0.291665,-0.05594 -0.278332,-0.04426 -0.506664,-0.125235 -0.491664,-0.175329 -0.645829,-0.242121 -1.147493,-0.572741 -0.50083,-0.330621 -0.866661,-0.811523 -0.866661,-1.339181 0,-0.614485 0.501663,-1.141308 1.254159,-1.517847 z m 1.248326,2.42121 c 0.045,0.277186 0.122499,0.608643 0.134999,0.944272 0.145832,0.03339 0.294998,0.06429 0.44833,0.08934 0.383331,-0.189523 0.719163,-0.353163 1.058327,-0.517638 l -1.03916,-0.449176 c -0.0025,0 -0.075,-0.01253 -0.179166,-0.02755 a 7.6341205,7.6485175 0 0 0 -0.42333,-0.03925 z m 2.742483,0.242956 -0.724162,0.338134 0.01833,0.532666 c 0.703329,-0.02672 1.359158,-0.145273 1.915822,-0.338969 0.01667,-0.248801 0.09,-0.492591 0.126666,-0.687957 -0.120833,-0.03088 -0.254166,-0.02755 -0.577497,-0.03006 -0.323331,-0.0025 -0.758329,0.186183 -0.758329,0.186183 z m 1.541657,-0.09601 c -0.03333,0.102693 -0.06833,0.208725 -0.08917,0.325611 -0.01167,0.06179 -0.01667,0.140263 -0.02333,0.213735 0.222499,-0.08934 0.422497,-0.189522 0.604163,-0.29973 a 1.4541579,1.4569002 0 0 0 -0.491664,-0.239616 z m -2.472485,0.521813 c -0.242498,0.116885 -0.53333,0.25548 -0.819995,0.398247 0.281665,0.02505 0.562497,0.04842 0.834995,0.05511 z m -6.586627,3.305368 a 1.215826,1.2181189 0 0 0 -0.457497,0.09267 c -0.629163,0.278022 -1.255826,0.592779 -1.844155,0.908372 0.08833,0.0084 0.173332,0.02087 0.249998,0.03088 0.323332,0.04341 0.675829,0.182008 1.257493,0.636194 0.233332,0.182844 0.49333,0.45335 0.748328,0.768108 0.272499,0.32394 0.508331,0.704656 0.720829,1.033606 0.144166,0.240451 0.271665,0.480068 0.374998,0.707995 0.125833,0.263829 0.216665,0.535171 0.314165,0.78898 0.09333,0.25548 0.149999,0.515134 0.217499,0.75976 0.065,0.237946 0.08667,0.478397 0.124999,0.704654 0.02667,0.223754 0.0375,0.434149 0.03333,0.629515 -0.0092,0.374871 -0.03667,0.713005 -0.139999,1.014403 -0.03333,0.09601 -0.07667,0.187018 -0.128333,0.273848 a 63.707948,63.828094 0 0 0 1.66749,-0.785641 c 1.04166,-0.564393 1.133327,-2.486332 0.195832,-4.596958 -0.733329,-1.651433 -2.209986,-2.983933 -3.33498,-2.9664 z m 12.033261,0.556044 c 0.154166,0.28971 0.281665,0.754749 0.108333,1.363391 -0.055,0.143603 -0.1,0.314758 -0.179166,0.464204 -0.439997,0.91839 -1.254992,1.344189 -1.490824,1.451891 0,0.03924 -0.0017,0.09351 -0.0325,0.386559 -0.03083,0.292215 -0.0525,0.414945 -0.144999,0.718014 -0.09167,0.304738 -0.189166,0.524317 -0.319998,0.734712 -0.06417,0.08349 -0.124999,0.214569 -0.421664,0.542685 -0.363331,0.226258 -0.839995,0.37821 -1.09416,0.37821 0.141665,0.473387 0.370831,0.857442 0.725829,1.048633 0.559163,0.298894 1.294992,0.199541 2.04332,-0.231267 0.422498,-0.243791 0.844162,-0.593613 1.233326,-1.026927 0.291665,-0.338135 0.554997,-0.697976 0.976661,-1.436027 0.420831,-0.736382 0.678329,-1.723234 0.658329,-2.541436 -0.01833,-0.838239 -0.319998,-1.488626 -0.878328,-1.786685 a 1.2316592,1.2339819 0 0 0 -0.600829,-0.136092 c -0.206666,0 -0.410831,0.05009 -0.58333,0.07013 z m -0.236665,0.03925 c -0.416664,0.137758 -0.841662,0.392402 -1.248326,0.730536 0.143332,0.160301 0.308331,0.297225 0.509164,0.448343 a 3.1083145,3.1141764 0 0 0 0.757495,0.41912 l 0.04,-0.09435 a 2.6166508,2.6215855 0 0 0 0.08,-0.237111 c 0.114166,-0.400751 0.085,-0.722189 0.01,-0.963475 a 1.3666584,1.3692357 0 0 0 -0.148332,-0.303068 z m -14.314914,0.611147 a 0.66666263,0.66791988 0 0 0 -0.389997,0.129409 c -0.394165,0.308079 -0.649163,0.766438 -0.685829,1.581301 -0.03583,0.815696 0.175832,1.824255 0.644996,2.880404 0.419164,0.943437 1.08166,1.782512 1.781656,2.324362 0.700829,0.542684 1.439157,0.788145 2.067487,0.500939 0.516664,-0.286371 0.614163,-0.834065 0.631663,-1.567106 0.0175,-0.733044 -0.200832,-1.751621 -0.672496,-2.791906 -0.394998,-0.871635 -1.215826,-1.987897 -1.782489,-2.431228 -0.566664,-0.442497 -0.866662,-0.554373 -1.154993,-0.592779 a 2.4958182,2.500525 0 0 0 -0.439998,-0.03339 z m 12.895756,0.269673 c -0.484997,0.485905 -0.903328,0.999368 -1.208326,1.499472 l 1.203326,0.662076 a 2.6999837,2.7050756 0 0 0 0.442497,-0.260489 2.919149,2.9246542 0 0 0 0.887495,-0.9952 3.6124781,3.6192909 0 0 1 -0.786662,-0.450012 c -0.296665,-0.222083 -0.424164,-0.32561 -0.53833,-0.455854 z M 34.66381,38.9946 a 6.2457955,6.2575744 0 0 0 -0.54833,1.431853 l 1.629157,-0.83824 c -0.341665,-0.18369 -0.724996,-0.390745 -1.080827,-0.593625 z m 1.183326,0.780631 -1.854155,0.967648 -0.025,0.121896 c 0.188332,0.04426 0.395831,0.106867 0.651663,0.242956 0.355831,0.189522 0.522496,0.325611 0.650829,0.442498 0.04333,-0.05678 0.08583,-0.116052 0.127499,-0.181174 0.284998,-0.457525 0.393331,-0.965144 0.435831,-1.324152 0.01,-0.09016 0.0083,-0.182008 0.01333,-0.269672 z"
     id="path5"
     style="fill:#e5e5e5;fill-opacity:1;stroke-width:1" />
</svg>
